<?xml version="1.0" encoding="UTF-8" standalone="no"?>
<!DOCTYPE svg PUBLIC "-//W3C//DTD SVG 1.1//EN" "http://www.w3.org/Graphics/SVG/1.1/DTD/svg11.dtd">
<svg width="100%" height="100%" viewBox="0 0 842 596" version="1.1" xmlns="http://www.w3.org/2000/svg" xmlns:xlink="http://www.w3.org/1999/xlink" xml:space="preserve" xmlns:serif="http://www.serif.com/" style="fill-rule:evenodd;clip-rule:evenodd;stroke-linejoin:round;stroke-miterlimit:2;">
    <g id="Layer1">
        <g transform="matrix(0.0971532,0,0,0.10932,425.476,164.396)">
            <path d="M0,1.79L-3.799,1.339C-4.006,0.903 -4.406,0.564 -4.917,0.464L-16.094,-1.738C-16.156,-2.091 -16.423,-2.387 -16.795,-2.461L-16.885,-2.478L-16.845,-2.678C-16.7,-3.417 -17.192,-4.132 -17.935,-4.26L-30.6,-6.438C-31.318,-6.562 -32.004,-6.09 -32.145,-5.375L-32.307,-4.548L-33.051,-4.694L-32.877,-5.51C-32.746,-6.126 -33.139,-6.732 -33.755,-6.864L-35.156,-7.163C-35.773,-7.294 -36.379,-6.901 -36.51,-6.285L-36.696,-5.412L-37.493,-5.569C-37.498,-5.573 -37.503,-5.577 -37.507,-5.58L-37.328,-6.418C-37.233,-6.865 -37.518,-7.305 -37.965,-7.401L-38.965,-7.614C-39.412,-7.709 -39.852,-7.424 -39.948,-6.977L-40.164,-5.962C-58.785,-5.114 -63.816,11.67 -67.873,25.23C-70.443,33.819 -72.662,41.236 -77.494,41.236C-78.148,41.236 -78.611,41.043 -78.997,40.608C-81.422,37.874 -80.236,27.967 -79.451,21.411C-78.559,13.963 -78.198,10.307 -79.728,8.582C-80.249,7.995 -80.965,7.671 -81.744,7.671C-86.187,7.671 -89.456,14.138 -92.916,20.986C-94.431,23.983 -96.91,28.888 -98.243,29.756C-99.094,27.862 -97.834,19.917 -97.143,15.556C-95.812,7.167 -95.146,2.319 -96.918,0.244C-97.482,-0.417 -98.269,-0.781 -99.133,-0.781C-104.028,-0.781 -107.875,7.234 -113.184,19.463C-115.2,24.105 -117.927,30.385 -119.346,31.603C-120.45,30.252 -119.247,22.516 -118.726,19.165C-117.768,13.005 -117.366,9.975 -118.699,8.418C-119.189,7.847 -119.872,7.532 -120.621,7.532C-122.387,7.532 -124.646,8.877 -128.817,11.455C-131.93,13.379 -135.716,15.719 -139.497,17.33C-139.319,15.943 -139.229,14.582 -139.229,13.286C-139.229,9.417 -139.965,6.071 -141.357,3.611C-143.075,0.575 -145.703,-1.03 -148.957,-1.03C-155.811,-1.03 -159.397,4.781 -159.397,10.522C-159.397,13.727 -158.345,16.735 -156.434,18.994C-154.216,21.616 -151.06,23.003 -147.307,23.003C-146.393,23.003 -145.465,22.919 -144.527,22.765C-146.476,28.648 -150.102,33.293 -154.458,33.293C-158.415,33.293 -159.274,28.901 -159.923,23.595C-160.281,20.666 -160.59,18.136 -162.935,18.136C-163.892,18.136 -165.097,18.623 -167.514,19.637C-168.928,20.23 -170.648,20.95 -172.472,21.585C-172.363,20.457 -172.307,19.326 -172.307,18.204C-172.307,14.058 -173.088,10.466 -174.566,7.817C-176.392,4.543 -179.19,2.813 -182.658,2.813C-187.335,2.813 -192.07,6.748 -192.07,14.268C-192.07,17.516 -191.048,20.553 -189.192,22.818C-186.999,25.495 -183.83,26.909 -180.028,26.909C-179.108,26.909 -178.167,26.827 -177.221,26.684C-178.925,32.863 -182.352,37.88 -186.51,37.88C-190.401,37.88 -191.413,32.43 -192.117,26.847C-192.508,23.75 -192.79,21.512 -194.958,21.512C-196.883,21.512 -198.314,23.32 -200.294,25.823C-202.436,28.529 -205.102,31.898 -207.796,31.898C-210.203,31.898 -212.033,30.408 -213.389,27.343C-214.31,25.26 -214.937,22.573 -215.243,19.432C-215.031,19.232 -214.823,19.029 -214.618,18.823C-204.919,9.095 -195.71,-8.689 -198.82,-16.181C-199.719,-18.346 -201.569,-19.538 -204.029,-19.538C-213.805,-19.538 -219.211,0.711 -219.211,14.708C-219.211,15.79 -219.181,16.843 -219.123,17.862C-221.604,19.933 -224.528,21.72 -227.481,23.337C-227.991,20.409 -229.151,17.751 -230.802,15.934C-232.336,14.245 -234.226,13.352 -236.267,13.352C-247.222,13.352 -251.088,25.231 -253.158,31.937C-253.507,29.227 -253.848,25.563 -254.092,21.399C-253.508,20.311 -252.984,19.31 -252.534,18.44C-246.092,5.976 -239.209,-10.647 -239.209,-19.917C-239.209,-22.273 -239.636,-24.074 -240.514,-25.421C-241.574,-27.05 -243.239,-27.91 -245.33,-27.91C-250.257,-27.91 -253.819,-23.628 -255.918,-15.183C-257.826,-7.51 -258.226,2.382 -258.226,9.329C-258.226,12.976 -258.115,16.829 -257.909,20.572C-264.835,33.285 -270.589,40.329 -272.331,40.602C-272.948,40.602 -273.357,40.428 -273.699,40.021C-276.109,37.156 -274.183,26.111 -273.033,19.512C-271.721,11.984 -271.242,8.865 -272.575,7.28C-273.048,6.717 -273.711,6.407 -274.441,6.407C-276.295,6.407 -278.32,6.8 -280.315,7.228C-280.313,7.112 -280.312,6.996 -280.312,6.88C-280.312,4.111 -280.922,1.877 -282.126,0.24C-283.104,-1.089 -284.979,-2.672 -288.359,-2.672C-292.687,-2.672 -294.951,0.941 -294.951,4.51C-294.951,6.458 -294.298,8.287 -293.112,9.663C-292.146,10.783 -290.376,12.119 -287.435,12.119C-286.545,12.119 -285.634,12.039 -284.713,11.911C-285.708,16.137 -287.786,20.894 -290.548,25.069C-294.73,31.387 -299.714,35.159 -303.883,35.159C-308.148,35.159 -311.509,33.628 -313.887,30.605C-307.346,23.693 -302.687,13.437 -302.687,6.322C-302.687,3.701 -303.297,1.587 -304.5,0.037C-305.46,-1.199 -307.294,-2.672 -310.58,-2.672C-317.302,-2.672 -321.463,7.742 -321.463,17.391C-321.463,22.174 -320.474,26.603 -318.649,30.1C-321.794,32.834 -325.028,34.322 -328.002,34.322C-332.116,34.322 -334.633,28.292 -335.767,24.697C-336.404,22.676 -336.947,20.401 -337.388,17.928C-336.727,16.462 -336.115,15.058 -335.564,13.758C-332.134,5.682 -328.689,-3.956 -326.395,-12.608C-319.14,-12.672 -310.635,-12.542 -300.862,-12.066C-299.823,-12.017 -298.948,-12.813 -298.898,-13.847C-298.848,-14.882 -299.645,-15.761 -300.679,-15.811C-310.12,-16.271 -318.371,-16.418 -325.455,-16.379C-324.34,-21.183 -323.667,-25.533 -323.667,-28.929C-323.667,-31.307 -323.988,-33.121 -324.648,-34.474C-325.52,-36.263 -327.021,-37.248 -328.874,-37.248C-335.319,-37.248 -339.346,-27.828 -341.23,-15.936C-352.14,-15.355 -357.723,-14.408 -358.14,-14.335C-359.16,-14.157 -359.842,-13.186 -359.664,-12.166C-359.505,-11.255 -358.713,-10.613 -357.819,-10.613C-357.712,-10.613 -357.604,-10.622 -357.495,-10.641C-357.396,-10.658 -352.121,-11.548 -341.748,-12.13C-342.248,-7.842 -342.496,-3.344 -342.496,1.075C-342.496,6.923 -342.073,12.498 -341.275,17.422C-348.562,33.346 -354.037,39.276 -356.086,39.276C-356.57,39.276 -356.928,39.121 -357.284,38.759C-359.921,36.077 -359.744,25.575 -359.614,17.906C-359.456,8.556 -359.471,3.159 -361.621,0.972C-362.267,0.316 -363.078,-0.031 -363.969,-0.031C-368.317,-0.031 -371.089,7.037 -375.253,18.57C-376.996,23.399 -379.847,31.297 -381.575,32.755C-382.405,31.024 -382.36,24.668 -382.335,21.142C-382.283,13.807 -382.347,9.215 -384.226,7.323C-384.82,6.724 -385.566,6.407 -386.382,6.407C-391.299,6.407 -394.175,12.629 -397.22,19.215C-399.92,25.058 -402.982,31.68 -406.754,31.68C-407.658,31.68 -408.063,31.336 -408.315,31.036C-410.807,28.071 -408.797,16.571 -407.182,7.331C-406.402,2.873 -405.638,-1.497 -405.167,-5.499C-399.92,-9.033 -397.207,-17.059 -397.207,-25.011C-397.207,-29.97 -398.246,-34.583 -400.132,-38C-402.402,-42.111 -405.875,-44.375 -409.911,-44.375C-414.597,-44.375 -419.033,-42.344 -422.741,-38.501C-430.194,-30.776 -434.478,-16.302 -433.919,-0.73C-433.699,5.412 -433.054,11.448 -432.432,17.285C-431.285,28.027 -430.202,38.173 -433.071,41.365C-433.477,41.816 -434.198,42.415 -435.778,42.415C-441.136,42.415 -444.979,30.39 -447.275,23.205C-449.371,16.645 -450.424,13.352 -452.975,13.352C-455.52,13.352 -457.072,16.489 -460.339,23.584C-462.516,28.312 -466.568,37.113 -469.074,37.113C-469.101,37.113 -469.142,37.113 -469.252,37.001C-471.569,34.654 -471.39,21.155 -471.247,10.31C-471.02,-6.851 -470.786,-24.597 -476.621,-30.51C-478.025,-31.933 -479.711,-32.655 -481.632,-32.655C-483.74,-32.655 -485.655,-31.791 -487.325,-30.09C-491.939,-25.385 -493.843,-14.827 -493.682,-6.451C-493.479,4.153 -489.902,10.912 -489.75,11.195C-489.26,12.105 -488.126,12.444 -487.214,11.957C-486.303,11.469 -485.96,10.333 -486.446,9.421C-486.479,9.359 -489.748,3.117 -489.933,-6.522C-490.078,-14.103 -488.309,-23.731 -484.648,-27.464C-483.696,-28.433 -482.71,-28.905 -481.632,-28.905C-480.727,-28.905 -479.983,-28.577 -479.29,-27.876C-474.556,-23.078 -474.8,-4.593 -474.997,10.26C-475.209,26.325 -475.174,36.339 -471.921,39.635C-471.128,40.438 -470.144,40.863 -469.074,40.863C-464.167,40.863 -460.489,32.876 -456.932,25.152C-455.749,22.582 -454.212,19.244 -453.175,17.732C-452.498,19.18 -451.601,21.987 -450.847,24.347C-447.904,33.555 -443.874,46.165 -435.778,46.165C-433.499,46.165 -431.65,45.393 -430.283,43.872C-426.296,39.437 -427.358,29.486 -428.702,16.887C-429.319,11.114 -429.956,5.145 -430.171,-0.865C-430.687,-15.234 -426.711,-28.985 -420.042,-35.898C-417.016,-39.035 -413.607,-40.625 -409.911,-40.625C-407.227,-40.625 -405.041,-39.132 -403.416,-36.187C-401.83,-33.316 -400.957,-29.347 -400.957,-25.011C-400.957,-18.731 -402.49,-14.075 -404.714,-11.13C-404.562,-15.814 -405.148,-19.631 -407.095,-21.948C-408.397,-23.497 -410.174,-24.282 -412.376,-24.282C-417.423,-24.282 -420.439,-18.825 -420.439,-13.548C-420.439,-10.956 -419.692,-8.574 -418.336,-6.84C-417.192,-5.376 -415.043,-3.631 -411.307,-3.631C-410.568,-3.631 -409.857,-3.699 -409.175,-3.831C-409.649,-0.334 -410.286,3.313 -410.876,6.685C-412.983,18.737 -414.802,29.146 -411.186,33.449C-410.097,34.745 -408.564,35.43 -406.754,35.43C-400.584,35.43 -397.143,27.987 -393.816,20.789C-391.624,16.048 -389.154,10.704 -386.75,10.197C-386.019,11.761 -386.06,17.564 -386.085,21.115C-386.14,28.826 -386.07,33.656 -384.038,35.702C-383.405,36.34 -382.611,36.677 -381.743,36.677C-377.985,36.677 -375.607,30.594 -371.725,19.843C-369.923,14.85 -366.233,4.628 -364.163,3.772C-363.153,5.389 -363.279,12.843 -363.363,17.843C-363.527,27.549 -363.697,37.586 -359.958,41.388C-358.905,42.459 -357.566,43.026 -356.086,43.026C-350.904,43.026 -344.75,33.099 -340.011,23.498C-339.801,24.304 -339.578,25.08 -339.343,25.826C-336.15,35.947 -331.413,38.072 -328.002,38.072C-324.061,38.072 -320.147,36.169 -316.618,33.193C-313.54,36.94 -309.17,38.909 -303.883,38.909C-293.079,38.909 -282.859,23.124 -280.72,11.154C-280.595,11.127 -280.471,11.1 -280.347,11.073C-278.626,10.698 -276.981,10.339 -275.52,10.209C-275.523,11.953 -276.181,15.733 -276.728,18.868C-278.309,27.945 -280.102,38.232 -276.57,42.434C-275.515,43.688 -274.049,44.352 -272.331,44.352C-268.261,44.352 -262.109,35.376 -257.417,27.344C-257.36,27.975 -257.299,28.596 -257.236,29.205C-256.253,38.666 -255.492,39.558 -253.723,39.558C-251.582,39.558 -250.87,37.247 -249.69,33.419C-247.146,25.163 -244.015,17.102 -236.267,17.102C-235.298,17.102 -234.393,17.557 -233.578,18.456C-232.213,19.958 -231.282,22.505 -231.019,25.206C-231.508,25.458 -231.993,25.706 -232.472,25.951C-239.378,29.486 -244.833,32.277 -244.833,36.755C-244.833,40.553 -241.373,43.498 -238.396,43.498C-232.944,43.498 -227.942,35.47 -227.278,28.563C-227.242,28.191 -227.218,27.819 -227.203,27.446C-224.301,25.91 -221.344,24.223 -218.658,22.256C-218.256,24.779 -217.639,27.006 -216.818,28.86C-214.336,34.47 -210.542,35.648 -207.796,35.648C-203.288,35.648 -199.858,31.314 -197.354,28.15C-196.924,27.607 -196.419,26.968 -195.952,26.424C-195.912,26.724 -195.874,27.029 -195.838,27.316C-195.207,32.319 -194.033,41.63 -186.51,41.63C-182.317,41.63 -178.529,38.758 -175.845,33.541C-174.647,31.214 -173.721,28.54 -173.118,25.736C-170.487,24.949 -168.009,23.91 -166.065,23.095C-165.346,22.794 -164.525,22.45 -163.893,22.205C-163.802,22.77 -163.716,23.471 -163.645,24.05C-163.09,28.591 -162.056,37.043 -154.458,37.043C-147.15,37.043 -142.355,29.58 -140.329,21.67C-135.486,19.985 -130.688,17.019 -126.845,14.645C-125.036,13.527 -122.891,12.201 -121.583,11.602C-121.596,13.221 -122.067,16.248 -122.431,18.589C-123.637,26.342 -124.267,31.612 -122.123,34.115C-121.386,34.975 -120.384,35.43 -119.226,35.43C-116.165,35.43 -113.989,30.731 -109.744,20.956C-107.178,15.045 -102.533,4.347 -99.658,3.091C-99.277,5.074 -100.21,10.956 -100.846,14.969C-102.31,24.195 -103.047,29.973 -100.957,32.422C-100.304,33.186 -99.39,33.607 -98.383,33.607C-95.093,33.607 -92.776,29.022 -89.569,22.677C-87.665,18.909 -84.613,12.87 -82.461,11.643C-82.275,13.459 -82.786,17.725 -83.174,20.965C-84.192,29.466 -85.346,39.102 -81.801,43.097C-80.705,44.333 -79.215,44.986 -77.494,44.986C-69.87,44.986 -67.155,35.912 -64.28,26.305C-60.462,13.544 -56.149,-0.83 -40.979,-2.145L-41.063,-1.747C-41.159,-1.3 -40.874,-0.86 -40.427,-0.765L-39.427,-0.551C-38.98,-0.456 -38.54,-0.741 -38.444,-1.188L-38.255,-2.075L-37.443,-1.915L-37.617,-1.1C-37.748,-0.483 -37.355,0.123 -36.739,0.254L-35.338,0.553C-34.721,0.685 -34.115,0.292 -33.984,-0.325L-33.797,-1.197L-32.998,-1.04L-33.161,-0.213C-33.302,0.502 -32.847,1.199 -32.135,1.357L-19.591,4.145C-18.855,4.309 -18.128,3.834 -17.982,3.094L-17.943,2.895L-17.853,2.913C-17.481,2.986 -17.122,2.813 -16.931,2.51L-5.754,4.712C-5.239,4.814 -4.736,4.649 -4.378,4.318L-0.701,5.35L0.815,4.448L1.061,3.199L0,1.79ZM-411.307,-7.381C-413.093,-7.381 -414.464,-7.976 -415.383,-9.15C-416.225,-10.227 -416.689,-11.789 -416.689,-13.548C-416.689,-16.851 -414.917,-20.532 -412.376,-20.532C-410.967,-20.532 -410.326,-19.963 -409.966,-19.535C-408.348,-17.61 -408.211,-13.162 -408.702,-7.904C-409.555,-7.556 -410.431,-7.381 -411.307,-7.381M-328.874,-33.498C-328.638,-33.498 -328.343,-33.498 -328.019,-32.831C-327.744,-32.269 -327.417,-31.135 -327.417,-28.929C-327.417,-25.768 -328.093,-21.413 -329.308,-16.336C-332.221,-16.29 -334.922,-16.214 -337.39,-16.115C-335.658,-26.411 -332.453,-33.498 -328.874,-33.498M-338.746,1.075C-338.746,-3.643 -338.459,-8.175 -337.945,-12.317C-335.597,-12.418 -333.045,-12.5 -330.276,-12.554C-332.192,-5.511 -334.973,2.573 -338.336,10.673C-338.606,7.623 -338.746,4.399 -338.746,1.075M-315.839,27.295C-317.058,24.51 -317.713,21.093 -317.713,17.391C-317.713,9.006 -314.247,1.078 -310.58,1.078C-309.14,1.078 -308.12,1.49 -307.462,2.337C-306.791,3.201 -306.437,4.579 -306.437,6.322C-306.437,11.211 -309.228,18.395 -313.383,24.198C-314.183,25.314 -315.004,26.348 -315.839,27.295M-284.101,8.015C-285.27,8.223 -286.405,8.369 -287.435,8.369C-288.656,8.369 -289.611,7.98 -290.272,7.213C-290.862,6.529 -291.201,5.543 -291.201,4.51C-291.201,3.235 -290.602,1.078 -288.359,1.078C-286.884,1.078 -285.833,1.531 -285.147,2.463C-284.437,3.428 -284.062,4.955 -284.062,6.88C-284.062,7.248 -284.075,7.627 -284.101,8.015M-249.552,-21.283C-248.312,-23.219 -246.931,-24.16 -245.33,-24.16C-244.602,-24.16 -243.245,-24.16 -242.996,-20.915C-242.514,-14.658 -246.969,-1.128 -254.401,13.829C-254.704,0.604 -253.79,-14.666 -249.552,-21.283M-238.396,39.748C-239.316,39.748 -241.083,38.485 -241.083,36.755C-241.083,34.633 -236.13,32.037 -231.195,29.51C-232.184,34.863 -235.915,39.748 -238.396,39.748M-204.029,-15.788C-202.941,-15.788 -202.544,-15.37 -202.284,-14.743C-200.551,-10.569 -205.77,3.547 -215.459,14.264C-215.348,-0.698 -209.636,-15.788 -204.029,-15.788M-176.391,22.718C-177.639,22.991 -178.871,23.159 -180.028,23.159C-182.706,23.159 -184.813,22.245 -186.291,20.441C-187.599,18.845 -188.32,16.652 -188.32,14.268C-188.32,10.439 -186.375,6.563 -182.658,6.563C-180.573,6.563 -178.997,7.571 -177.841,9.644C-176.69,11.706 -176.057,14.746 -176.057,18.204C-176.057,19.696 -176.172,21.217 -176.391,22.718M-143.491,18.72C-144.804,19.058 -146.086,19.253 -147.307,19.253C-149.921,19.253 -152.088,18.326 -153.571,16.572C-154.89,15.013 -155.647,12.808 -155.647,10.522C-155.647,6.764 -153.553,2.72 -148.957,2.72C-147.082,2.72 -145.663,3.615 -144.621,5.458C-143.562,7.328 -142.979,10.109 -142.979,13.286C-142.979,15.083 -143.157,16.922 -143.491,18.72" style="fill:rgb(125,97,186);fill-rule:nonzero;"/>
        </g>
        <g transform="matrix(0.190514,0,0,0.190514,277.868,124.377)">
            <g transform="matrix(18.3714,0,0,18.3714,348.661,151.698)">
                <path d="M0.425,0L0.289,0L0.04,-0.7L0.195,-0.7L0.327,-0.295C0.33,-0.285 0.334,-0.275 0.337,-0.264C0.34,-0.253 0.344,-0.243 0.346,-0.233C0.349,-0.222 0.352,-0.212 0.355,-0.203C0.357,-0.194 0.359,-0.186 0.36,-0.18C0.363,-0.193 0.368,-0.211 0.374,-0.232C0.379,-0.253 0.385,-0.274 0.392,-0.295L0.521,-0.7L0.674,-0.7L0.425,0Z" style="fill:rgb(125,97,186);fill-rule:nonzero;"/>
            </g>
            <g transform="matrix(18.3714,0,0,18.3714,361.778,151.698)">
                <path d="M0.657,-0.226C0.657,-0.189 0.651,-0.157 0.639,-0.129C0.627,-0.1 0.61,-0.077 0.589,-0.058C0.567,-0.039 0.541,-0.024 0.51,-0.015C0.479,-0.005 0.445,0 0.408,0L0.09,0L0.09,-0.7L0.411,-0.7C0.479,-0.7 0.533,-0.684 0.573,-0.653C0.613,-0.621 0.633,-0.575 0.633,-0.515C0.633,-0.485 0.626,-0.458 0.614,-0.435C0.601,-0.412 0.582,-0.393 0.559,-0.379C0.587,-0.366 0.61,-0.347 0.629,-0.322C0.648,-0.297 0.657,-0.265 0.657,-0.226ZM0.492,-0.504C0.492,-0.526 0.485,-0.543 0.472,-0.554C0.459,-0.565 0.437,-0.571 0.406,-0.571L0.228,-0.571L0.228,-0.438L0.413,-0.438C0.442,-0.438 0.463,-0.444 0.474,-0.457C0.486,-0.469 0.492,-0.485 0.492,-0.504ZM0.514,-0.224C0.514,-0.284 0.481,-0.314 0.414,-0.314L0.228,-0.314L0.228,-0.132L0.414,-0.132C0.448,-0.132 0.473,-0.14 0.49,-0.157C0.506,-0.173 0.514,-0.195 0.514,-0.224Z" style="fill:rgb(125,97,186);fill-rule:nonzero;"/>
            </g>
            <g transform="matrix(18.3714,0,0,18.3714,374.822,151.698)">
                <path d="M0.652,-0.309C0.652,-0.207 0.627,-0.128 0.577,-0.073C0.527,-0.017 0.457,0.011 0.368,0.011C0.326,0.011 0.288,0.004 0.253,-0.01C0.218,-0.024 0.188,-0.045 0.163,-0.071C0.138,-0.099 0.119,-0.132 0.106,-0.171C0.092,-0.21 0.085,-0.256 0.085,-0.307L0.085,-0.7L0.225,-0.7L0.225,-0.309C0.225,-0.252 0.238,-0.208 0.263,-0.175C0.288,-0.142 0.323,-0.126 0.368,-0.126C0.413,-0.126 0.448,-0.142 0.473,-0.174C0.499,-0.206 0.512,-0.25 0.512,-0.307L0.512,-0.7L0.652,-0.7L0.652,-0.309Z" style="fill:rgb(125,97,186);fill-rule:nonzero;"/>
            </g>
            <g transform="matrix(18.3714,0,0,18.3714,388.362,151.698)">
                <path d="M0.603,-0.212C0.603,-0.179 0.598,-0.148 0.587,-0.121C0.576,-0.094 0.56,-0.07 0.537,-0.051C0.514,-0.031 0.486,-0.016 0.452,-0.005C0.417,0.006 0.376,0.011 0.328,0.011C0.269,0.011 0.216,0 0.168,-0.023C0.12,-0.046 0.083,-0.077 0.056,-0.116L0.157,-0.206C0.182,-0.177 0.209,-0.157 0.239,-0.145C0.27,-0.132 0.302,-0.126 0.336,-0.126C0.378,-0.126 0.409,-0.132 0.429,-0.144C0.448,-0.156 0.458,-0.175 0.458,-0.202C0.458,-0.213 0.456,-0.223 0.452,-0.232C0.448,-0.24 0.441,-0.248 0.43,-0.255C0.419,-0.262 0.403,-0.269 0.382,-0.276C0.361,-0.283 0.335,-0.29 0.302,-0.297C0.27,-0.304 0.241,-0.313 0.214,-0.323C0.187,-0.333 0.163,-0.346 0.144,-0.361C0.125,-0.376 0.11,-0.396 0.099,-0.419C0.088,-0.442 0.083,-0.471 0.083,-0.506C0.083,-0.538 0.09,-0.567 0.102,-0.592C0.116,-0.617 0.133,-0.639 0.156,-0.657C0.179,-0.674 0.205,-0.688 0.235,-0.697C0.266,-0.706 0.298,-0.711 0.333,-0.711C0.388,-0.711 0.436,-0.701 0.476,-0.682C0.518,-0.663 0.555,-0.636 0.588,-0.601L0.487,-0.503C0.464,-0.526 0.44,-0.544 0.414,-0.557C0.389,-0.569 0.36,-0.575 0.328,-0.575C0.309,-0.575 0.294,-0.573 0.281,-0.57C0.268,-0.566 0.258,-0.561 0.25,-0.555C0.242,-0.549 0.236,-0.542 0.233,-0.535C0.23,-0.528 0.228,-0.52 0.228,-0.512C0.228,-0.501 0.23,-0.491 0.234,-0.484C0.239,-0.476 0.246,-0.469 0.257,-0.463C0.268,-0.457 0.282,-0.451 0.3,-0.446C0.318,-0.441 0.341,-0.435 0.369,-0.428C0.397,-0.421 0.425,-0.413 0.453,-0.405C0.48,-0.396 0.505,-0.383 0.528,-0.367C0.55,-0.351 0.568,-0.331 0.582,-0.306C0.596,-0.281 0.603,-0.25 0.603,-0.212Z" style="fill:rgb(125,97,186);fill-rule:nonzero;"/>
            </g>
        </g>
        <g transform="matrix(0.190514,0,0,0.190514,308.032,124.377)">
            <g transform="matrix(18.3714,0,0,18.3714,348.661,151.698)">
                <path d="M0.496,0L0.371,-0.252L0.23,-0.252L0.23,0L0.09,0L0.09,-0.7L0.416,-0.7C0.449,-0.7 0.48,-0.696 0.509,-0.687C0.538,-0.678 0.564,-0.664 0.586,-0.645C0.608,-0.626 0.625,-0.603 0.638,-0.576C0.651,-0.548 0.657,-0.515 0.657,-0.478C0.657,-0.425 0.646,-0.382 0.624,-0.348C0.601,-0.315 0.568,-0.289 0.523,-0.272L0.657,0L0.496,0ZM0.513,-0.475C0.513,-0.507 0.504,-0.53 0.487,-0.544C0.469,-0.557 0.444,-0.564 0.413,-0.564L0.23,-0.564L0.23,-0.384L0.413,-0.384C0.48,-0.384 0.513,-0.414 0.513,-0.475Z" style="fill:rgb(125,97,186);fill-rule:nonzero;"/>
            </g>
            <g transform="matrix(18.3714,0,0,18.3714,361.778,151.698)">
                <path d="M0.603,-0.212C0.603,-0.179 0.598,-0.148 0.587,-0.121C0.576,-0.094 0.56,-0.07 0.537,-0.051C0.514,-0.031 0.486,-0.016 0.452,-0.005C0.417,0.006 0.376,0.011 0.328,0.011C0.269,0.011 0.216,0 0.168,-0.023C0.12,-0.046 0.083,-0.077 0.056,-0.116L0.157,-0.206C0.182,-0.177 0.209,-0.157 0.239,-0.145C0.27,-0.132 0.302,-0.126 0.336,-0.126C0.378,-0.126 0.409,-0.132 0.429,-0.144C0.448,-0.156 0.458,-0.175 0.458,-0.202C0.458,-0.213 0.456,-0.223 0.452,-0.232C0.448,-0.24 0.441,-0.248 0.43,-0.255C0.419,-0.262 0.403,-0.269 0.382,-0.276C0.361,-0.283 0.335,-0.29 0.302,-0.297C0.27,-0.304 0.241,-0.313 0.214,-0.323C0.187,-0.333 0.163,-0.346 0.144,-0.361C0.125,-0.376 0.11,-0.396 0.099,-0.419C0.088,-0.442 0.083,-0.471 0.083,-0.506C0.083,-0.538 0.09,-0.567 0.102,-0.592C0.116,-0.617 0.133,-0.639 0.156,-0.657C0.179,-0.674 0.205,-0.688 0.235,-0.697C0.266,-0.706 0.298,-0.711 0.333,-0.711C0.388,-0.711 0.436,-0.701 0.476,-0.682C0.518,-0.663 0.555,-0.636 0.588,-0.601L0.487,-0.503C0.464,-0.526 0.44,-0.544 0.414,-0.557C0.389,-0.569 0.36,-0.575 0.328,-0.575C0.309,-0.575 0.294,-0.573 0.281,-0.57C0.268,-0.566 0.258,-0.561 0.25,-0.555C0.242,-0.549 0.236,-0.542 0.233,-0.535C0.23,-0.528 0.228,-0.52 0.228,-0.512C0.228,-0.501 0.23,-0.491 0.234,-0.484C0.239,-0.476 0.246,-0.469 0.257,-0.463C0.268,-0.457 0.282,-0.451 0.3,-0.446C0.318,-0.441 0.341,-0.435 0.369,-0.428C0.397,-0.421 0.425,-0.413 0.453,-0.405C0.48,-0.396 0.505,-0.383 0.528,-0.367C0.55,-0.351 0.568,-0.331 0.582,-0.306C0.596,-0.281 0.603,-0.25 0.603,-0.212Z" style="fill:rgb(125,97,186);fill-rule:nonzero;"/>
            </g>
            <g transform="matrix(18.3714,0,0,18.3714,373.444,151.698)">
                <path d="M0.386,-0.562L0.386,0L0.246,0L0.246,-0.562L0.045,-0.562L0.045,-0.7L0.587,-0.7L0.587,-0.562L0.386,-0.562Z" style="fill:rgb(125,97,186);fill-rule:nonzero;"/>
            </g>
        </g>
        <g transform="matrix(0.190514,0,0,0.190514,316.491,124.377)">
            <g transform="matrix(18.3714,0,0,18.3714,348.661,151.698)">
                <path d="M0.603,-0.212C0.603,-0.179 0.598,-0.148 0.587,-0.121C0.576,-0.094 0.56,-0.07 0.537,-0.051C0.514,-0.031 0.486,-0.016 0.452,-0.005C0.417,0.006 0.376,0.011 0.328,0.011C0.269,0.011 0.216,0 0.168,-0.023C0.12,-0.046 0.083,-0.077 0.056,-0.116L0.157,-0.206C0.182,-0.177 0.209,-0.157 0.239,-0.145C0.27,-0.132 0.302,-0.126 0.336,-0.126C0.378,-0.126 0.409,-0.132 0.429,-0.144C0.448,-0.156 0.458,-0.175 0.458,-0.202C0.458,-0.213 0.456,-0.223 0.452,-0.232C0.448,-0.24 0.441,-0.248 0.43,-0.255C0.419,-0.262 0.403,-0.269 0.382,-0.276C0.361,-0.283 0.335,-0.29 0.302,-0.297C0.27,-0.304 0.241,-0.313 0.214,-0.323C0.187,-0.333 0.163,-0.346 0.144,-0.361C0.125,-0.376 0.11,-0.396 0.099,-0.419C0.088,-0.442 0.083,-0.471 0.083,-0.506C0.083,-0.538 0.09,-0.567 0.102,-0.592C0.116,-0.617 0.133,-0.639 0.156,-0.657C0.179,-0.674 0.205,-0.688 0.235,-0.697C0.266,-0.706 0.298,-0.711 0.333,-0.711C0.388,-0.711 0.436,-0.701 0.476,-0.682C0.518,-0.663 0.555,-0.636 0.588,-0.601L0.487,-0.503C0.464,-0.526 0.44,-0.544 0.414,-0.557C0.389,-0.569 0.36,-0.575 0.328,-0.575C0.309,-0.575 0.294,-0.573 0.281,-0.57C0.268,-0.566 0.258,-0.561 0.25,-0.555C0.242,-0.549 0.236,-0.542 0.233,-0.535C0.23,-0.528 0.228,-0.52 0.228,-0.512C0.228,-0.501 0.23,-0.491 0.234,-0.484C0.239,-0.476 0.246,-0.469 0.257,-0.463C0.268,-0.457 0.282,-0.451 0.3,-0.446C0.318,-0.441 0.341,-0.435 0.369,-0.428C0.397,-0.421 0.425,-0.413 0.453,-0.405C0.48,-0.396 0.505,-0.383 0.528,-0.367C0.55,-0.351 0.568,-0.331 0.582,-0.306C0.596,-0.281 0.603,-0.25 0.603,-0.212Z" style="fill:rgb(125,97,186);fill-rule:nonzero;"/>
            </g>
            <g transform="matrix(18.3714,0,0,18.3714,360.529,151.698)">
                <path d="M0.603,-0.212C0.603,-0.179 0.598,-0.148 0.587,-0.121C0.576,-0.094 0.56,-0.07 0.537,-0.051C0.514,-0.031 0.486,-0.016 0.452,-0.005C0.417,0.006 0.376,0.011 0.328,0.011C0.269,0.011 0.216,0 0.168,-0.023C0.12,-0.046 0.083,-0.077 0.056,-0.116L0.157,-0.206C0.182,-0.177 0.209,-0.157 0.239,-0.145C0.27,-0.132 0.302,-0.126 0.336,-0.126C0.378,-0.126 0.409,-0.132 0.429,-0.144C0.448,-0.156 0.458,-0.175 0.458,-0.202C0.458,-0.213 0.456,-0.223 0.452,-0.232C0.448,-0.24 0.441,-0.248 0.43,-0.255C0.419,-0.262 0.403,-0.269 0.382,-0.276C0.361,-0.283 0.335,-0.29 0.302,-0.297C0.27,-0.304 0.241,-0.313 0.214,-0.323C0.187,-0.333 0.163,-0.346 0.144,-0.361C0.125,-0.376 0.11,-0.396 0.099,-0.419C0.088,-0.442 0.083,-0.471 0.083,-0.506C0.083,-0.538 0.09,-0.567 0.102,-0.592C0.116,-0.617 0.133,-0.639 0.156,-0.657C0.179,-0.674 0.205,-0.688 0.235,-0.697C0.266,-0.706 0.298,-0.711 0.333,-0.711C0.388,-0.711 0.436,-0.701 0.476,-0.682C0.518,-0.663 0.555,-0.636 0.588,-0.601L0.487,-0.503C0.464,-0.526 0.44,-0.544 0.414,-0.557C0.389,-0.569 0.36,-0.575 0.328,-0.575C0.309,-0.575 0.294,-0.573 0.281,-0.57C0.268,-0.566 0.258,-0.561 0.25,-0.555C0.242,-0.549 0.236,-0.542 0.233,-0.535C0.23,-0.528 0.228,-0.52 0.228,-0.512C0.228,-0.501 0.23,-0.491 0.234,-0.484C0.239,-0.476 0.246,-0.469 0.257,-0.463C0.268,-0.457 0.282,-0.451 0.3,-0.446C0.318,-0.441 0.341,-0.435 0.369,-0.428C0.397,-0.421 0.425,-0.413 0.453,-0.405C0.48,-0.396 0.505,-0.383 0.528,-0.367C0.55,-0.351 0.568,-0.331 0.582,-0.306C0.596,-0.281 0.603,-0.25 0.603,-0.212Z" style="fill:rgb(125,97,186);fill-rule:nonzero;"/>
            </g>
        </g>
        <g transform="matrix(-0.190514,0,0,0.190514,447.972,133.73)">
            <g transform="matrix(18.3714,0,0,18.3714,348.661,151.698)">
                <path d="M0.496,0L0.371,-0.252L0.23,-0.252L0.23,0L0.09,0L0.09,-0.7L0.416,-0.7C0.449,-0.7 0.48,-0.696 0.509,-0.687C0.538,-0.678 0.564,-0.664 0.586,-0.645C0.608,-0.626 0.625,-0.603 0.638,-0.576C0.651,-0.548 0.657,-0.515 0.657,-0.478C0.657,-0.425 0.646,-0.382 0.624,-0.348C0.601,-0.315 0.568,-0.289 0.523,-0.272L0.657,0L0.496,0ZM0.513,-0.475C0.513,-0.507 0.504,-0.53 0.487,-0.544C0.469,-0.557 0.444,-0.564 0.413,-0.564L0.23,-0.564L0.23,-0.384L0.413,-0.384C0.48,-0.384 0.513,-0.414 0.513,-0.475Z" style="fill:rgb(192,35,53);fill-rule:nonzero;"/>
            </g>
            <g transform="matrix(18.3714,0,0,18.3714,361.778,151.698)">
                <path d="M0.603,-0.212C0.603,-0.179 0.598,-0.148 0.587,-0.121C0.576,-0.094 0.56,-0.07 0.537,-0.051C0.514,-0.031 0.486,-0.016 0.452,-0.005C0.417,0.006 0.376,0.011 0.328,0.011C0.269,0.011 0.216,0 0.168,-0.023C0.12,-0.046 0.083,-0.077 0.056,-0.116L0.157,-0.206C0.182,-0.177 0.209,-0.157 0.239,-0.145C0.27,-0.132 0.302,-0.126 0.336,-0.126C0.378,-0.126 0.409,-0.132 0.429,-0.144C0.448,-0.156 0.458,-0.175 0.458,-0.202C0.458,-0.213 0.456,-0.223 0.452,-0.232C0.448,-0.24 0.441,-0.248 0.43,-0.255C0.419,-0.262 0.403,-0.269 0.382,-0.276C0.361,-0.283 0.335,-0.29 0.302,-0.297C0.27,-0.304 0.241,-0.313 0.214,-0.323C0.187,-0.333 0.163,-0.346 0.144,-0.361C0.125,-0.376 0.11,-0.396 0.099,-0.419C0.088,-0.442 0.083,-0.471 0.083,-0.506C0.083,-0.538 0.09,-0.567 0.102,-0.592C0.116,-0.617 0.133,-0.639 0.156,-0.657C0.179,-0.674 0.205,-0.688 0.235,-0.697C0.266,-0.706 0.298,-0.711 0.333,-0.711C0.388,-0.711 0.436,-0.701 0.476,-0.682C0.518,-0.663 0.555,-0.636 0.588,-0.601L0.487,-0.503C0.464,-0.526 0.44,-0.544 0.414,-0.557C0.389,-0.569 0.36,-0.575 0.328,-0.575C0.309,-0.575 0.294,-0.573 0.281,-0.57C0.268,-0.566 0.258,-0.561 0.25,-0.555C0.242,-0.549 0.236,-0.542 0.233,-0.535C0.23,-0.528 0.228,-0.52 0.228,-0.512C0.228,-0.501 0.23,-0.491 0.234,-0.484C0.239,-0.476 0.246,-0.469 0.257,-0.463C0.268,-0.457 0.282,-0.451 0.3,-0.446C0.318,-0.441 0.341,-0.435 0.369,-0.428C0.397,-0.421 0.425,-0.413 0.453,-0.405C0.48,-0.396 0.505,-0.383 0.528,-0.367C0.55,-0.351 0.568,-0.331 0.582,-0.306C0.596,-0.281 0.603,-0.25 0.603,-0.212Z" style="fill:rgb(192,35,53);fill-rule:nonzero;"/>
            </g>
            <g transform="matrix(18.3714,0,0,18.3714,373.444,151.698)">
                <path d="M0.386,-0.562L0.386,0L0.246,0L0.246,-0.562L0.045,-0.562L0.045,-0.7L0.587,-0.7L0.587,-0.562L0.386,-0.562Z" style="fill:rgb(192,35,53);fill-rule:nonzero;"/>
            </g>
        </g>
        <g transform="matrix(-0.190514,0,0,0.190514,453.908,133.73)">
            <g transform="matrix(18.3714,0,0,18.3714,348.661,151.698)">
                <path d="M0.603,-0.212C0.603,-0.179 0.598,-0.148 0.587,-0.121C0.576,-0.094 0.56,-0.07 0.537,-0.051C0.514,-0.031 0.486,-0.016 0.452,-0.005C0.417,0.006 0.376,0.011 0.328,0.011C0.269,0.011 0.216,0 0.168,-0.023C0.12,-0.046 0.083,-0.077 0.056,-0.116L0.157,-0.206C0.182,-0.177 0.209,-0.157 0.239,-0.145C0.27,-0.132 0.302,-0.126 0.336,-0.126C0.378,-0.126 0.409,-0.132 0.429,-0.144C0.448,-0.156 0.458,-0.175 0.458,-0.202C0.458,-0.213 0.456,-0.223 0.452,-0.232C0.448,-0.24 0.441,-0.248 0.43,-0.255C0.419,-0.262 0.403,-0.269 0.382,-0.276C0.361,-0.283 0.335,-0.29 0.302,-0.297C0.27,-0.304 0.241,-0.313 0.214,-0.323C0.187,-0.333 0.163,-0.346 0.144,-0.361C0.125,-0.376 0.11,-0.396 0.099,-0.419C0.088,-0.442 0.083,-0.471 0.083,-0.506C0.083,-0.538 0.09,-0.567 0.102,-0.592C0.116,-0.617 0.133,-0.639 0.156,-0.657C0.179,-0.674 0.205,-0.688 0.235,-0.697C0.266,-0.706 0.298,-0.711 0.333,-0.711C0.388,-0.711 0.436,-0.701 0.476,-0.682C0.518,-0.663 0.555,-0.636 0.588,-0.601L0.487,-0.503C0.464,-0.526 0.44,-0.544 0.414,-0.557C0.389,-0.569 0.36,-0.575 0.328,-0.575C0.309,-0.575 0.294,-0.573 0.281,-0.57C0.268,-0.566 0.258,-0.561 0.25,-0.555C0.242,-0.549 0.236,-0.542 0.233,-0.535C0.23,-0.528 0.228,-0.52 0.228,-0.512C0.228,-0.501 0.23,-0.491 0.234,-0.484C0.239,-0.476 0.246,-0.469 0.257,-0.463C0.268,-0.457 0.282,-0.451 0.3,-0.446C0.318,-0.441 0.341,-0.435 0.369,-0.428C0.397,-0.421 0.425,-0.413 0.453,-0.405C0.48,-0.396 0.505,-0.383 0.528,-0.367C0.55,-0.351 0.568,-0.331 0.582,-0.306C0.596,-0.281 0.603,-0.25 0.603,-0.212Z" style="fill:rgb(192,35,53);fill-rule:nonzero;"/>
            </g>
            <g transform="matrix(18.3714,0,0,18.3714,360.529,151.698)">
                <path d="M0.603,-0.212C0.603,-0.179 0.598,-0.148 0.587,-0.121C0.576,-0.094 0.56,-0.07 0.537,-0.051C0.514,-0.031 0.486,-0.016 0.452,-0.005C0.417,0.006 0.376,0.011 0.328,0.011C0.269,0.011 0.216,0 0.168,-0.023C0.12,-0.046 0.083,-0.077 0.056,-0.116L0.157,-0.206C0.182,-0.177 0.209,-0.157 0.239,-0.145C0.27,-0.132 0.302,-0.126 0.336,-0.126C0.378,-0.126 0.409,-0.132 0.429,-0.144C0.448,-0.156 0.458,-0.175 0.458,-0.202C0.458,-0.213 0.456,-0.223 0.452,-0.232C0.448,-0.24 0.441,-0.248 0.43,-0.255C0.419,-0.262 0.403,-0.269 0.382,-0.276C0.361,-0.283 0.335,-0.29 0.302,-0.297C0.27,-0.304 0.241,-0.313 0.214,-0.323C0.187,-0.333 0.163,-0.346 0.144,-0.361C0.125,-0.376 0.11,-0.396 0.099,-0.419C0.088,-0.442 0.083,-0.471 0.083,-0.506C0.083,-0.538 0.09,-0.567 0.102,-0.592C0.116,-0.617 0.133,-0.639 0.156,-0.657C0.179,-0.674 0.205,-0.688 0.235,-0.697C0.266,-0.706 0.298,-0.711 0.333,-0.711C0.388,-0.711 0.436,-0.701 0.476,-0.682C0.518,-0.663 0.555,-0.636 0.588,-0.601L0.487,-0.503C0.464,-0.526 0.44,-0.544 0.414,-0.557C0.389,-0.569 0.36,-0.575 0.328,-0.575C0.309,-0.575 0.294,-0.573 0.281,-0.57C0.268,-0.566 0.258,-0.561 0.25,-0.555C0.242,-0.549 0.236,-0.542 0.233,-0.535C0.23,-0.528 0.228,-0.52 0.228,-0.512C0.228,-0.501 0.23,-0.491 0.234,-0.484C0.239,-0.476 0.246,-0.469 0.257,-0.463C0.268,-0.457 0.282,-0.451 0.3,-0.446C0.318,-0.441 0.341,-0.435 0.369,-0.428C0.397,-0.421 0.425,-0.413 0.453,-0.405C0.48,-0.396 0.505,-0.383 0.528,-0.367C0.55,-0.351 0.568,-0.331 0.582,-0.306C0.596,-0.281 0.603,-0.25 0.603,-0.212Z" style="fill:rgb(192,35,53);fill-rule:nonzero;"/>
            </g>
        </g>
        <g transform="matrix(-0.190514,0,0,0.190514,462.557,133.73)">
            <g transform="matrix(18.3714,0,0,18.3714,348.661,151.698)">
                <path d="M0.496,0L0.371,-0.252L0.23,-0.252L0.23,0L0.09,0L0.09,-0.7L0.416,-0.7C0.449,-0.7 0.48,-0.696 0.509,-0.687C0.538,-0.678 0.564,-0.664 0.586,-0.645C0.608,-0.626 0.625,-0.603 0.638,-0.576C0.651,-0.548 0.657,-0.515 0.657,-0.478C0.657,-0.425 0.646,-0.382 0.624,-0.348C0.601,-0.315 0.568,-0.289 0.523,-0.272L0.657,0L0.496,0ZM0.513,-0.475C0.513,-0.507 0.504,-0.53 0.487,-0.544C0.469,-0.557 0.444,-0.564 0.413,-0.564L0.23,-0.564L0.23,-0.384L0.413,-0.384C0.48,-0.384 0.513,-0.414 0.513,-0.475Z" style="fill:rgb(192,35,53);fill-rule:nonzero;"/>
            </g>
            <g transform="matrix(18.3714,0,0,18.3714,361.778,151.698)">
                <path d="M0.603,-0.212C0.603,-0.179 0.598,-0.148 0.587,-0.121C0.576,-0.094 0.56,-0.07 0.537,-0.051C0.514,-0.031 0.486,-0.016 0.452,-0.005C0.417,0.006 0.376,0.011 0.328,0.011C0.269,0.011 0.216,0 0.168,-0.023C0.12,-0.046 0.083,-0.077 0.056,-0.116L0.157,-0.206C0.182,-0.177 0.209,-0.157 0.239,-0.145C0.27,-0.132 0.302,-0.126 0.336,-0.126C0.378,-0.126 0.409,-0.132 0.429,-0.144C0.448,-0.156 0.458,-0.175 0.458,-0.202C0.458,-0.213 0.456,-0.223 0.452,-0.232C0.448,-0.24 0.441,-0.248 0.43,-0.255C0.419,-0.262 0.403,-0.269 0.382,-0.276C0.361,-0.283 0.335,-0.29 0.302,-0.297C0.27,-0.304 0.241,-0.313 0.214,-0.323C0.187,-0.333 0.163,-0.346 0.144,-0.361C0.125,-0.376 0.11,-0.396 0.099,-0.419C0.088,-0.442 0.083,-0.471 0.083,-0.506C0.083,-0.538 0.09,-0.567 0.102,-0.592C0.116,-0.617 0.133,-0.639 0.156,-0.657C0.179,-0.674 0.205,-0.688 0.235,-0.697C0.266,-0.706 0.298,-0.711 0.333,-0.711C0.388,-0.711 0.436,-0.701 0.476,-0.682C0.518,-0.663 0.555,-0.636 0.588,-0.601L0.487,-0.503C0.464,-0.526 0.44,-0.544 0.414,-0.557C0.389,-0.569 0.36,-0.575 0.328,-0.575C0.309,-0.575 0.294,-0.573 0.281,-0.57C0.268,-0.566 0.258,-0.561 0.25,-0.555C0.242,-0.549 0.236,-0.542 0.233,-0.535C0.23,-0.528 0.228,-0.52 0.228,-0.512C0.228,-0.501 0.23,-0.491 0.234,-0.484C0.239,-0.476 0.246,-0.469 0.257,-0.463C0.268,-0.457 0.282,-0.451 0.3,-0.446C0.318,-0.441 0.341,-0.435 0.369,-0.428C0.397,-0.421 0.425,-0.413 0.453,-0.405C0.48,-0.396 0.505,-0.383 0.528,-0.367C0.55,-0.351 0.568,-0.331 0.582,-0.306C0.596,-0.281 0.603,-0.25 0.603,-0.212Z" style="fill:rgb(192,35,53);fill-rule:nonzero;"/>
            </g>
            <g transform="matrix(18.3714,0,0,18.3714,373.444,151.698)">
                <path d="M0.386,-0.562L0.386,0L0.246,0L0.246,-0.562L0.045,-0.562L0.045,-0.7L0.587,-0.7L0.587,-0.562L0.386,-0.562Z" style="fill:rgb(192,35,53);fill-rule:nonzero;"/>
            </g>
        </g>
        <g transform="matrix(-0.190514,0,0,0.190514,468.493,133.73)">
            <g transform="matrix(18.3714,0,0,18.3714,348.661,151.698)">
                <path d="M0.603,-0.212C0.603,-0.179 0.598,-0.148 0.587,-0.121C0.576,-0.094 0.56,-0.07 0.537,-0.051C0.514,-0.031 0.486,-0.016 0.452,-0.005C0.417,0.006 0.376,0.011 0.328,0.011C0.269,0.011 0.216,0 0.168,-0.023C0.12,-0.046 0.083,-0.077 0.056,-0.116L0.157,-0.206C0.182,-0.177 0.209,-0.157 0.239,-0.145C0.27,-0.132 0.302,-0.126 0.336,-0.126C0.378,-0.126 0.409,-0.132 0.429,-0.144C0.448,-0.156 0.458,-0.175 0.458,-0.202C0.458,-0.213 0.456,-0.223 0.452,-0.232C0.448,-0.24 0.441,-0.248 0.43,-0.255C0.419,-0.262 0.403,-0.269 0.382,-0.276C0.361,-0.283 0.335,-0.29 0.302,-0.297C0.27,-0.304 0.241,-0.313 0.214,-0.323C0.187,-0.333 0.163,-0.346 0.144,-0.361C0.125,-0.376 0.11,-0.396 0.099,-0.419C0.088,-0.442 0.083,-0.471 0.083,-0.506C0.083,-0.538 0.09,-0.567 0.102,-0.592C0.116,-0.617 0.133,-0.639 0.156,-0.657C0.179,-0.674 0.205,-0.688 0.235,-0.697C0.266,-0.706 0.298,-0.711 0.333,-0.711C0.388,-0.711 0.436,-0.701 0.476,-0.682C0.518,-0.663 0.555,-0.636 0.588,-0.601L0.487,-0.503C0.464,-0.526 0.44,-0.544 0.414,-0.557C0.389,-0.569 0.36,-0.575 0.328,-0.575C0.309,-0.575 0.294,-0.573 0.281,-0.57C0.268,-0.566 0.258,-0.561 0.25,-0.555C0.242,-0.549 0.236,-0.542 0.233,-0.535C0.23,-0.528 0.228,-0.52 0.228,-0.512C0.228,-0.501 0.23,-0.491 0.234,-0.484C0.239,-0.476 0.246,-0.469 0.257,-0.463C0.268,-0.457 0.282,-0.451 0.3,-0.446C0.318,-0.441 0.341,-0.435 0.369,-0.428C0.397,-0.421 0.425,-0.413 0.453,-0.405C0.48,-0.396 0.505,-0.383 0.528,-0.367C0.55,-0.351 0.568,-0.331 0.582,-0.306C0.596,-0.281 0.603,-0.25 0.603,-0.212Z" style="fill:rgb(192,35,53);fill-rule:nonzero;"/>
            </g>
            <g transform="matrix(18.3714,0,0,18.3714,360.529,151.698)">
                <path d="M0.603,-0.212C0.603,-0.179 0.598,-0.148 0.587,-0.121C0.576,-0.094 0.56,-0.07 0.537,-0.051C0.514,-0.031 0.486,-0.016 0.452,-0.005C0.417,0.006 0.376,0.011 0.328,0.011C0.269,0.011 0.216,0 0.168,-0.023C0.12,-0.046 0.083,-0.077 0.056,-0.116L0.157,-0.206C0.182,-0.177 0.209,-0.157 0.239,-0.145C0.27,-0.132 0.302,-0.126 0.336,-0.126C0.378,-0.126 0.409,-0.132 0.429,-0.144C0.448,-0.156 0.458,-0.175 0.458,-0.202C0.458,-0.213 0.456,-0.223 0.452,-0.232C0.448,-0.24 0.441,-0.248 0.43,-0.255C0.419,-0.262 0.403,-0.269 0.382,-0.276C0.361,-0.283 0.335,-0.29 0.302,-0.297C0.27,-0.304 0.241,-0.313 0.214,-0.323C0.187,-0.333 0.163,-0.346 0.144,-0.361C0.125,-0.376 0.11,-0.396 0.099,-0.419C0.088,-0.442 0.083,-0.471 0.083,-0.506C0.083,-0.538 0.09,-0.567 0.102,-0.592C0.116,-0.617 0.133,-0.639 0.156,-0.657C0.179,-0.674 0.205,-0.688 0.235,-0.697C0.266,-0.706 0.298,-0.711 0.333,-0.711C0.388,-0.711 0.436,-0.701 0.476,-0.682C0.518,-0.663 0.555,-0.636 0.588,-0.601L0.487,-0.503C0.464,-0.526 0.44,-0.544 0.414,-0.557C0.389,-0.569 0.36,-0.575 0.328,-0.575C0.309,-0.575 0.294,-0.573 0.281,-0.57C0.268,-0.566 0.258,-0.561 0.25,-0.555C0.242,-0.549 0.236,-0.542 0.233,-0.535C0.23,-0.528 0.228,-0.52 0.228,-0.512C0.228,-0.501 0.23,-0.491 0.234,-0.484C0.239,-0.476 0.246,-0.469 0.257,-0.463C0.268,-0.457 0.282,-0.451 0.3,-0.446C0.318,-0.441 0.341,-0.435 0.369,-0.428C0.397,-0.421 0.425,-0.413 0.453,-0.405C0.48,-0.396 0.505,-0.383 0.528,-0.367C0.55,-0.351 0.568,-0.331 0.582,-0.306C0.596,-0.281 0.603,-0.25 0.603,-0.212Z" style="fill:rgb(192,35,53);fill-rule:nonzero;"/>
            </g>
        </g>
        <g transform="matrix(-0.190514,0,0,0.190514,433.497,133.73)">
            <g transform="matrix(18.3714,0,0,18.3714,348.661,151.698)">
                <path d="M0.496,0L0.371,-0.252L0.23,-0.252L0.23,0L0.09,0L0.09,-0.7L0.416,-0.7C0.449,-0.7 0.48,-0.696 0.509,-0.687C0.538,-0.678 0.564,-0.664 0.586,-0.645C0.608,-0.626 0.625,-0.603 0.638,-0.576C0.651,-0.548 0.657,-0.515 0.657,-0.478C0.657,-0.425 0.646,-0.382 0.624,-0.348C0.601,-0.315 0.568,-0.289 0.523,-0.272L0.657,0L0.496,0ZM0.513,-0.475C0.513,-0.507 0.504,-0.53 0.487,-0.544C0.469,-0.557 0.444,-0.564 0.413,-0.564L0.23,-0.564L0.23,-0.384L0.413,-0.384C0.48,-0.384 0.513,-0.414 0.513,-0.475Z" style="fill:rgb(192,35,53);fill-rule:nonzero;"/>
            </g>
            <g transform="matrix(18.3714,0,0,18.3714,361.778,151.698)">
                <path d="M0.603,-0.212C0.603,-0.179 0.598,-0.148 0.587,-0.121C0.576,-0.094 0.56,-0.07 0.537,-0.051C0.514,-0.031 0.486,-0.016 0.452,-0.005C0.417,0.006 0.376,0.011 0.328,0.011C0.269,0.011 0.216,0 0.168,-0.023C0.12,-0.046 0.083,-0.077 0.056,-0.116L0.157,-0.206C0.182,-0.177 0.209,-0.157 0.239,-0.145C0.27,-0.132 0.302,-0.126 0.336,-0.126C0.378,-0.126 0.409,-0.132 0.429,-0.144C0.448,-0.156 0.458,-0.175 0.458,-0.202C0.458,-0.213 0.456,-0.223 0.452,-0.232C0.448,-0.24 0.441,-0.248 0.43,-0.255C0.419,-0.262 0.403,-0.269 0.382,-0.276C0.361,-0.283 0.335,-0.29 0.302,-0.297C0.27,-0.304 0.241,-0.313 0.214,-0.323C0.187,-0.333 0.163,-0.346 0.144,-0.361C0.125,-0.376 0.11,-0.396 0.099,-0.419C0.088,-0.442 0.083,-0.471 0.083,-0.506C0.083,-0.538 0.09,-0.567 0.102,-0.592C0.116,-0.617 0.133,-0.639 0.156,-0.657C0.179,-0.674 0.205,-0.688 0.235,-0.697C0.266,-0.706 0.298,-0.711 0.333,-0.711C0.388,-0.711 0.436,-0.701 0.476,-0.682C0.518,-0.663 0.555,-0.636 0.588,-0.601L0.487,-0.503C0.464,-0.526 0.44,-0.544 0.414,-0.557C0.389,-0.569 0.36,-0.575 0.328,-0.575C0.309,-0.575 0.294,-0.573 0.281,-0.57C0.268,-0.566 0.258,-0.561 0.25,-0.555C0.242,-0.549 0.236,-0.542 0.233,-0.535C0.23,-0.528 0.228,-0.52 0.228,-0.512C0.228,-0.501 0.23,-0.491 0.234,-0.484C0.239,-0.476 0.246,-0.469 0.257,-0.463C0.268,-0.457 0.282,-0.451 0.3,-0.446C0.318,-0.441 0.341,-0.435 0.369,-0.428C0.397,-0.421 0.425,-0.413 0.453,-0.405C0.48,-0.396 0.505,-0.383 0.528,-0.367C0.55,-0.351 0.568,-0.331 0.582,-0.306C0.596,-0.281 0.603,-0.25 0.603,-0.212Z" style="fill:rgb(192,35,53);fill-rule:nonzero;"/>
            </g>
            <g transform="matrix(18.3714,0,0,18.3714,373.444,151.698)">
                <path d="M0.386,-0.562L0.386,0L0.246,0L0.246,-0.562L0.045,-0.562L0.045,-0.7L0.587,-0.7L0.587,-0.562L0.386,-0.562Z" style="fill:rgb(192,35,53);fill-rule:nonzero;"/>
            </g>
        </g>
        <g transform="matrix(-0.190514,0,0,0.190514,439.433,133.73)">
            <g transform="matrix(18.3714,0,0,18.3714,348.661,151.698)">
                <path d="M0.603,-0.212C0.603,-0.179 0.598,-0.148 0.587,-0.121C0.576,-0.094 0.56,-0.07 0.537,-0.051C0.514,-0.031 0.486,-0.016 0.452,-0.005C0.417,0.006 0.376,0.011 0.328,0.011C0.269,0.011 0.216,0 0.168,-0.023C0.12,-0.046 0.083,-0.077 0.056,-0.116L0.157,-0.206C0.182,-0.177 0.209,-0.157 0.239,-0.145C0.27,-0.132 0.302,-0.126 0.336,-0.126C0.378,-0.126 0.409,-0.132 0.429,-0.144C0.448,-0.156 0.458,-0.175 0.458,-0.202C0.458,-0.213 0.456,-0.223 0.452,-0.232C0.448,-0.24 0.441,-0.248 0.43,-0.255C0.419,-0.262 0.403,-0.269 0.382,-0.276C0.361,-0.283 0.335,-0.29 0.302,-0.297C0.27,-0.304 0.241,-0.313 0.214,-0.323C0.187,-0.333 0.163,-0.346 0.144,-0.361C0.125,-0.376 0.11,-0.396 0.099,-0.419C0.088,-0.442 0.083,-0.471 0.083,-0.506C0.083,-0.538 0.09,-0.567 0.102,-0.592C0.116,-0.617 0.133,-0.639 0.156,-0.657C0.179,-0.674 0.205,-0.688 0.235,-0.697C0.266,-0.706 0.298,-0.711 0.333,-0.711C0.388,-0.711 0.436,-0.701 0.476,-0.682C0.518,-0.663 0.555,-0.636 0.588,-0.601L0.487,-0.503C0.464,-0.526 0.44,-0.544 0.414,-0.557C0.389,-0.569 0.36,-0.575 0.328,-0.575C0.309,-0.575 0.294,-0.573 0.281,-0.57C0.268,-0.566 0.258,-0.561 0.25,-0.555C0.242,-0.549 0.236,-0.542 0.233,-0.535C0.23,-0.528 0.228,-0.52 0.228,-0.512C0.228,-0.501 0.23,-0.491 0.234,-0.484C0.239,-0.476 0.246,-0.469 0.257,-0.463C0.268,-0.457 0.282,-0.451 0.3,-0.446C0.318,-0.441 0.341,-0.435 0.369,-0.428C0.397,-0.421 0.425,-0.413 0.453,-0.405C0.48,-0.396 0.505,-0.383 0.528,-0.367C0.55,-0.351 0.568,-0.331 0.582,-0.306C0.596,-0.281 0.603,-0.25 0.603,-0.212Z" style="fill:rgb(192,35,53);fill-rule:nonzero;"/>
            </g>
            <g transform="matrix(18.3714,0,0,18.3714,360.529,151.698)">
                <path d="M0.603,-0.212C0.603,-0.179 0.598,-0.148 0.587,-0.121C0.576,-0.094 0.56,-0.07 0.537,-0.051C0.514,-0.031 0.486,-0.016 0.452,-0.005C0.417,0.006 0.376,0.011 0.328,0.011C0.269,0.011 0.216,0 0.168,-0.023C0.12,-0.046 0.083,-0.077 0.056,-0.116L0.157,-0.206C0.182,-0.177 0.209,-0.157 0.239,-0.145C0.27,-0.132 0.302,-0.126 0.336,-0.126C0.378,-0.126 0.409,-0.132 0.429,-0.144C0.448,-0.156 0.458,-0.175 0.458,-0.202C0.458,-0.213 0.456,-0.223 0.452,-0.232C0.448,-0.24 0.441,-0.248 0.43,-0.255C0.419,-0.262 0.403,-0.269 0.382,-0.276C0.361,-0.283 0.335,-0.29 0.302,-0.297C0.27,-0.304 0.241,-0.313 0.214,-0.323C0.187,-0.333 0.163,-0.346 0.144,-0.361C0.125,-0.376 0.11,-0.396 0.099,-0.419C0.088,-0.442 0.083,-0.471 0.083,-0.506C0.083,-0.538 0.09,-0.567 0.102,-0.592C0.116,-0.617 0.133,-0.639 0.156,-0.657C0.179,-0.674 0.205,-0.688 0.235,-0.697C0.266,-0.706 0.298,-0.711 0.333,-0.711C0.388,-0.711 0.436,-0.701 0.476,-0.682C0.518,-0.663 0.555,-0.636 0.588,-0.601L0.487,-0.503C0.464,-0.526 0.44,-0.544 0.414,-0.557C0.389,-0.569 0.36,-0.575 0.328,-0.575C0.309,-0.575 0.294,-0.573 0.281,-0.57C0.268,-0.566 0.258,-0.561 0.25,-0.555C0.242,-0.549 0.236,-0.542 0.233,-0.535C0.23,-0.528 0.228,-0.52 0.228,-0.512C0.228,-0.501 0.23,-0.491 0.234,-0.484C0.239,-0.476 0.246,-0.469 0.257,-0.463C0.268,-0.457 0.282,-0.451 0.3,-0.446C0.318,-0.441 0.341,-0.435 0.369,-0.428C0.397,-0.421 0.425,-0.413 0.453,-0.405C0.48,-0.396 0.505,-0.383 0.528,-0.367C0.55,-0.351 0.568,-0.331 0.582,-0.306C0.596,-0.281 0.603,-0.25 0.603,-0.212Z" style="fill:rgb(192,35,53);fill-rule:nonzero;"/>
            </g>
        </g>
        <g transform="matrix(0.190514,0,0,0.190514,244.345,173.227)">
            <g transform="matrix(18.3714,0,0,18.3714,348.661,151.698)">
                <path d="M0.597,-0.217C0.597,-0.179 0.59,-0.146 0.576,-0.117C0.562,-0.089 0.542,-0.066 0.517,-0.047C0.492,-0.028 0.461,-0.013 0.426,-0.004C0.39,0.006 0.35,0.011 0.307,0.011C0.254,0.011 0.205,0 0.159,-0.021C0.112,-0.042 0.069,-0.076 0.03,-0.123L0.136,-0.209C0.165,-0.178 0.194,-0.157 0.223,-0.145C0.252,-0.132 0.284,-0.126 0.32,-0.126C0.366,-0.126 0.4,-0.134 0.422,-0.15C0.444,-0.165 0.455,-0.187 0.455,-0.215C0.455,-0.242 0.446,-0.263 0.429,-0.276C0.411,-0.289 0.385,-0.295 0.352,-0.295L0.269,-0.295L0.269,-0.432L0.344,-0.432C0.373,-0.432 0.394,-0.438 0.407,-0.45C0.42,-0.462 0.426,-0.48 0.426,-0.503C0.426,-0.512 0.424,-0.52 0.42,-0.529C0.416,-0.538 0.409,-0.545 0.401,-0.552C0.392,-0.559 0.38,-0.564 0.365,-0.568C0.349,-0.572 0.331,-0.574 0.309,-0.574C0.256,-0.574 0.211,-0.554 0.172,-0.515L0.07,-0.608C0.103,-0.643 0.139,-0.669 0.177,-0.686C0.214,-0.703 0.259,-0.711 0.311,-0.711C0.347,-0.711 0.381,-0.707 0.411,-0.699C0.443,-0.69 0.47,-0.678 0.493,-0.662C0.516,-0.645 0.535,-0.625 0.548,-0.6C0.561,-0.575 0.568,-0.546 0.568,-0.513C0.568,-0.475 0.56,-0.444 0.543,-0.421C0.526,-0.398 0.508,-0.381 0.487,-0.37C0.498,-0.366 0.51,-0.36 0.523,-0.352C0.536,-0.344 0.548,-0.334 0.559,-0.322C0.57,-0.309 0.579,-0.294 0.586,-0.277C0.593,-0.26 0.597,-0.24 0.597,-0.217Z" style="fill:rgb(125,97,186);fill-rule:nonzero;"/>
            </g>
            <g transform="matrix(18.3714,0,0,18.3714,360.841,151.698)">
                <path d="M0.425,0L0.289,0L0.04,-0.7L0.195,-0.7L0.327,-0.295C0.33,-0.285 0.334,-0.275 0.337,-0.264C0.34,-0.253 0.344,-0.243 0.346,-0.233C0.349,-0.222 0.352,-0.212 0.355,-0.203C0.357,-0.194 0.359,-0.186 0.36,-0.18C0.363,-0.193 0.368,-0.211 0.374,-0.232C0.379,-0.253 0.385,-0.274 0.392,-0.295L0.521,-0.7L0.674,-0.7L0.425,0Z" style="fill:rgb(125,97,186);fill-rule:nonzero;"/>
            </g>
        </g>
        <g transform="matrix(0.190514,0,0,0.190514,257.404,173.227)">
            <g transform="matrix(18.3714,0,0,18.3714,348.661,151.698)">
                <path d="M0.64,-0.272C0.64,-0.226 0.633,-0.186 0.619,-0.151C0.605,-0.116 0.586,-0.086 0.561,-0.062C0.536,-0.038 0.506,-0.02 0.471,-0.008C0.437,0.005 0.4,0.011 0.359,0.011C0.313,0.011 0.271,0.002 0.234,-0.015C0.197,-0.032 0.165,-0.056 0.138,-0.087C0.111,-0.118 0.09,-0.156 0.075,-0.201C0.06,-0.245 0.053,-0.295 0.053,-0.35C0.053,-0.403 0.061,-0.452 0.076,-0.497C0.091,-0.541 0.113,-0.579 0.14,-0.611C0.167,-0.642 0.2,-0.667 0.238,-0.685C0.276,-0.702 0.318,-0.711 0.364,-0.711C0.4,-0.711 0.432,-0.707 0.46,-0.699C0.487,-0.691 0.512,-0.679 0.533,-0.664C0.554,-0.649 0.573,-0.63 0.589,-0.609C0.604,-0.587 0.618,-0.563 0.629,-0.536L0.496,-0.481C0.489,-0.494 0.482,-0.506 0.474,-0.517C0.467,-0.528 0.458,-0.538 0.448,-0.546C0.437,-0.554 0.425,-0.56 0.411,-0.565C0.397,-0.57 0.381,-0.572 0.362,-0.572C0.336,-0.572 0.313,-0.567 0.292,-0.556C0.271,-0.545 0.254,-0.529 0.24,-0.509C0.226,-0.49 0.215,-0.467 0.208,-0.44C0.201,-0.412 0.197,-0.383 0.197,-0.35C0.197,-0.318 0.201,-0.288 0.208,-0.261C0.215,-0.234 0.226,-0.21 0.241,-0.19C0.255,-0.17 0.272,-0.154 0.293,-0.143C0.314,-0.132 0.337,-0.126 0.363,-0.126C0.387,-0.126 0.407,-0.129 0.424,-0.134C0.441,-0.139 0.454,-0.147 0.465,-0.156C0.475,-0.165 0.483,-0.177 0.489,-0.19C0.494,-0.203 0.498,-0.217 0.5,-0.232L0.389,-0.232L0.389,-0.364L0.64,-0.364L0.64,-0.272Z" style="fill:rgb(125,97,186);fill-rule:nonzero;"/>
            </g>
            <g transform="matrix(18.3714,0,0,18.3714,361.484,151.698)">
                <path d="M0.532,0L0.275,-0.382C0.266,-0.395 0.257,-0.409 0.248,-0.425C0.238,-0.44 0.231,-0.452 0.226,-0.461C0.226,-0.454 0.226,-0.445 0.227,-0.432C0.227,-0.419 0.227,-0.405 0.227,-0.39C0.227,-0.375 0.227,-0.36 0.228,-0.345C0.228,-0.33 0.228,-0.318 0.228,-0.308L0.228,0L0.09,0L0.09,-0.7L0.224,-0.7L0.472,-0.33C0.481,-0.317 0.49,-0.303 0.5,-0.288C0.509,-0.273 0.516,-0.26 0.521,-0.251C0.521,-0.258 0.521,-0.268 0.521,-0.281C0.52,-0.294 0.52,-0.308 0.52,-0.323C0.52,-0.338 0.52,-0.352 0.52,-0.367C0.519,-0.382 0.519,-0.394 0.519,-0.404L0.519,-0.7L0.657,-0.7L0.657,0L0.532,0Z" style="fill:rgb(125,97,186);fill-rule:nonzero;"/>
            </g>
            <g transform="matrix(18.3714,0,0,18.3714,375.208,151.698)">
                <path d="M0.657,-0.35C0.657,-0.289 0.647,-0.236 0.626,-0.192C0.606,-0.147 0.579,-0.111 0.546,-0.083C0.512,-0.054 0.473,-0.033 0.431,-0.02C0.388,-0.007 0.344,0 0.299,0L0.09,0L0.09,-0.7L0.309,-0.7C0.359,-0.7 0.405,-0.694 0.448,-0.682C0.49,-0.669 0.527,-0.649 0.558,-0.621C0.589,-0.593 0.613,-0.557 0.63,-0.513C0.648,-0.468 0.657,-0.414 0.657,-0.35ZM0.513,-0.35C0.513,-0.421 0.497,-0.475 0.464,-0.51C0.431,-0.546 0.378,-0.564 0.304,-0.564L0.23,-0.564L0.23,-0.136L0.299,-0.136C0.336,-0.136 0.368,-0.141 0.395,-0.152C0.422,-0.162 0.444,-0.176 0.461,-0.195C0.478,-0.214 0.491,-0.236 0.5,-0.263C0.509,-0.289 0.513,-0.318 0.513,-0.35Z" style="fill:rgb(125,97,186);fill-rule:nonzero;"/>
            </g>
        </g>
        <g transform="matrix(0.190514,0,0,0.190514,323.958,173.054)">
            <g transform="matrix(18.3714,0,0,18.3714,348.661,151.698)">
                <path d="M0.605,0L0.605,-0.257C0.605,-0.266 0.605,-0.278 0.606,-0.293C0.606,-0.308 0.606,-0.323 0.606,-0.338C0.606,-0.353 0.606,-0.368 0.607,-0.381C0.607,-0.394 0.607,-0.404 0.607,-0.411C0.602,-0.398 0.595,-0.38 0.586,-0.358C0.577,-0.336 0.567,-0.315 0.558,-0.295L0.416,0.016L0.275,-0.295C0.265,-0.315 0.256,-0.336 0.247,-0.358C0.238,-0.38 0.231,-0.398 0.226,-0.411C0.226,-0.404 0.226,-0.394 0.227,-0.381C0.227,-0.368 0.227,-0.353 0.227,-0.338C0.227,-0.323 0.227,-0.308 0.228,-0.293C0.228,-0.278 0.228,-0.266 0.228,-0.257L0.228,0L0.09,0L0.09,-0.7L0.226,-0.7L0.371,-0.383C0.376,-0.373 0.381,-0.363 0.385,-0.352C0.39,-0.341 0.394,-0.33 0.399,-0.319C0.403,-0.308 0.407,-0.298 0.411,-0.289C0.414,-0.28 0.417,-0.272 0.419,-0.266C0.424,-0.279 0.43,-0.297 0.439,-0.32C0.448,-0.342 0.457,-0.363 0.466,-0.383L0.607,-0.7L0.745,-0.7L0.745,0L0.605,0Z" style="fill:rgb(125,97,186);fill-rule:nonzero;"/>
            </g>
            <g transform="matrix(18.3714,0,0,18.3714,364.001,151.698)">
                <rect x="0.1" y="-0.7" width="0.14" height="0.7" style="fill:rgb(125,97,186);fill-rule:nonzero;"/>
            </g>
        </g>
        <g transform="matrix(0.190514,0,0,0.190514,307.934,173.054)">
            <g transform="matrix(18.3714,0,0,18.3714,348.661,151.698)">
                <path d="M0.603,-0.212C0.603,-0.179 0.598,-0.148 0.587,-0.121C0.576,-0.094 0.56,-0.07 0.537,-0.051C0.514,-0.031 0.486,-0.016 0.452,-0.005C0.417,0.006 0.376,0.011 0.328,0.011C0.269,0.011 0.216,0 0.168,-0.023C0.12,-0.046 0.083,-0.077 0.056,-0.116L0.157,-0.206C0.182,-0.177 0.209,-0.157 0.239,-0.145C0.27,-0.132 0.302,-0.126 0.336,-0.126C0.378,-0.126 0.409,-0.132 0.429,-0.144C0.448,-0.156 0.458,-0.175 0.458,-0.202C0.458,-0.213 0.456,-0.223 0.452,-0.232C0.448,-0.24 0.441,-0.248 0.43,-0.255C0.419,-0.262 0.403,-0.269 0.382,-0.276C0.361,-0.283 0.335,-0.29 0.302,-0.297C0.27,-0.304 0.241,-0.313 0.214,-0.323C0.187,-0.333 0.163,-0.346 0.144,-0.361C0.125,-0.376 0.11,-0.396 0.099,-0.419C0.088,-0.442 0.083,-0.471 0.083,-0.506C0.083,-0.538 0.09,-0.567 0.102,-0.592C0.116,-0.617 0.133,-0.639 0.156,-0.657C0.179,-0.674 0.205,-0.688 0.235,-0.697C0.266,-0.706 0.298,-0.711 0.333,-0.711C0.388,-0.711 0.436,-0.701 0.476,-0.682C0.518,-0.663 0.555,-0.636 0.588,-0.601L0.487,-0.503C0.464,-0.526 0.44,-0.544 0.414,-0.557C0.389,-0.569 0.36,-0.575 0.328,-0.575C0.309,-0.575 0.294,-0.573 0.281,-0.57C0.268,-0.566 0.258,-0.561 0.25,-0.555C0.242,-0.549 0.236,-0.542 0.233,-0.535C0.23,-0.528 0.228,-0.52 0.228,-0.512C0.228,-0.501 0.23,-0.491 0.234,-0.484C0.239,-0.476 0.246,-0.469 0.257,-0.463C0.268,-0.457 0.282,-0.451 0.3,-0.446C0.318,-0.441 0.341,-0.435 0.369,-0.428C0.397,-0.421 0.425,-0.413 0.453,-0.405C0.48,-0.396 0.505,-0.383 0.528,-0.367C0.55,-0.351 0.568,-0.331 0.582,-0.306C0.596,-0.281 0.603,-0.25 0.603,-0.212Z" style="fill:rgb(125,97,186);fill-rule:nonzero;"/>
            </g>
            <g transform="matrix(18.3714,0,0,18.3714,360.713,151.698)">
                <path d="M0.49,-0.496C0.477,-0.52 0.461,-0.539 0.441,-0.552C0.42,-0.565 0.394,-0.572 0.362,-0.572C0.336,-0.572 0.313,-0.567 0.292,-0.556C0.271,-0.545 0.254,-0.529 0.24,-0.509C0.226,-0.49 0.215,-0.467 0.208,-0.44C0.201,-0.412 0.197,-0.383 0.197,-0.35C0.197,-0.319 0.201,-0.29 0.208,-0.263C0.215,-0.235 0.226,-0.212 0.241,-0.192C0.255,-0.172 0.272,-0.156 0.293,-0.145C0.314,-0.134 0.337,-0.128 0.363,-0.128C0.395,-0.128 0.421,-0.135 0.442,-0.149C0.462,-0.163 0.481,-0.186 0.5,-0.217L0.618,-0.147C0.594,-0.097 0.561,-0.058 0.519,-0.031C0.476,-0.003 0.423,0.011 0.359,0.011C0.313,0.011 0.271,0.002 0.234,-0.015C0.197,-0.032 0.165,-0.056 0.138,-0.087C0.111,-0.118 0.09,-0.156 0.075,-0.201C0.06,-0.245 0.053,-0.295 0.053,-0.35C0.053,-0.403 0.061,-0.452 0.076,-0.497C0.091,-0.541 0.113,-0.579 0.14,-0.611C0.167,-0.642 0.2,-0.667 0.238,-0.685C0.276,-0.702 0.318,-0.711 0.364,-0.711C0.397,-0.711 0.426,-0.707 0.453,-0.7C0.48,-0.692 0.503,-0.681 0.525,-0.668C0.546,-0.654 0.564,-0.637 0.58,-0.619C0.595,-0.6 0.609,-0.579 0.62,-0.556L0.49,-0.496Z" style="fill:rgb(125,97,186);fill-rule:nonzero;"/>
            </g>
            <g transform="matrix(18.3714,0,0,18.3714,373.022,151.698)">
                <path d="M0.532,0L0.342,-0.338L0.23,-0.206L0.23,0L0.09,0L0.09,-0.7L0.23,-0.7L0.23,-0.475C0.23,-0.465 0.23,-0.455 0.23,-0.444C0.229,-0.433 0.229,-0.423 0.229,-0.413C0.228,-0.403 0.228,-0.395 0.228,-0.39C0.233,-0.398 0.241,-0.409 0.252,-0.423C0.263,-0.437 0.274,-0.45 0.283,-0.461L0.479,-0.7L0.648,-0.7L0.443,-0.458L0.7,0L0.532,0Z" style="fill:rgb(125,97,186);fill-rule:nonzero;"/>
            </g>
        </g>
        <g transform="matrix(0.190514,0,0,0.190514,316.024,173.054)">
            <g transform="matrix(18.3714,0,0,18.3714,348.661,151.698)">
                <path d="M0.605,0L0.605,-0.257C0.605,-0.266 0.605,-0.278 0.606,-0.293C0.606,-0.308 0.606,-0.323 0.606,-0.338C0.606,-0.353 0.606,-0.368 0.607,-0.381C0.607,-0.394 0.607,-0.404 0.607,-0.411C0.602,-0.398 0.595,-0.38 0.586,-0.358C0.577,-0.336 0.567,-0.315 0.558,-0.295L0.416,0.016L0.275,-0.295C0.265,-0.315 0.256,-0.336 0.247,-0.358C0.238,-0.38 0.231,-0.398 0.226,-0.411C0.226,-0.404 0.226,-0.394 0.227,-0.381C0.227,-0.368 0.227,-0.353 0.227,-0.338C0.227,-0.323 0.227,-0.308 0.228,-0.293C0.228,-0.278 0.228,-0.266 0.228,-0.257L0.228,0L0.09,0L0.09,-0.7L0.226,-0.7L0.371,-0.383C0.376,-0.373 0.381,-0.363 0.385,-0.352C0.39,-0.341 0.394,-0.33 0.399,-0.319C0.403,-0.308 0.407,-0.298 0.411,-0.289C0.414,-0.28 0.417,-0.272 0.419,-0.266C0.424,-0.279 0.43,-0.297 0.439,-0.32C0.448,-0.342 0.457,-0.363 0.466,-0.383L0.607,-0.7L0.745,-0.7L0.745,0L0.605,0Z" style="fill:rgb(125,97,186);fill-rule:nonzero;"/>
            </g>
            <g transform="matrix(18.3714,0,0,18.3714,364.001,151.698)">
                <path d="M0.661,-0.35C0.661,-0.297 0.654,-0.248 0.641,-0.203C0.627,-0.159 0.607,-0.121 0.581,-0.09C0.555,-0.058 0.523,-0.033 0.486,-0.016C0.448,0.002 0.405,0.011 0.357,0.011C0.309,0.011 0.266,0.002 0.229,-0.016C0.191,-0.033 0.159,-0.058 0.133,-0.09C0.107,-0.121 0.087,-0.159 0.074,-0.203C0.06,-0.248 0.053,-0.297 0.053,-0.35C0.053,-0.403 0.06,-0.452 0.074,-0.497C0.087,-0.541 0.107,-0.579 0.133,-0.611C0.159,-0.642 0.191,-0.667 0.229,-0.685C0.266,-0.702 0.309,-0.711 0.357,-0.711C0.405,-0.711 0.448,-0.702 0.486,-0.685C0.523,-0.667 0.555,-0.642 0.581,-0.611C0.607,-0.579 0.627,-0.541 0.641,-0.497C0.654,-0.452 0.661,-0.403 0.661,-0.35ZM0.517,-0.35C0.517,-0.381 0.514,-0.41 0.508,-0.438C0.502,-0.465 0.493,-0.488 0.48,-0.508C0.467,-0.528 0.45,-0.544 0.43,-0.555C0.409,-0.566 0.385,-0.572 0.357,-0.572C0.329,-0.572 0.305,-0.566 0.284,-0.555C0.264,-0.544 0.248,-0.528 0.234,-0.508C0.222,-0.488 0.212,-0.465 0.206,-0.438C0.2,-0.41 0.197,-0.381 0.197,-0.35C0.197,-0.319 0.2,-0.29 0.206,-0.263C0.212,-0.235 0.222,-0.212 0.234,-0.192C0.248,-0.172 0.264,-0.156 0.284,-0.145C0.305,-0.134 0.329,-0.128 0.357,-0.128C0.385,-0.128 0.409,-0.134 0.43,-0.145C0.45,-0.156 0.467,-0.172 0.48,-0.192C0.493,-0.212 0.502,-0.235 0.508,-0.263C0.514,-0.29 0.517,-0.319 0.517,-0.35Z" style="fill:rgb(125,97,186);fill-rule:nonzero;"/>
            </g>
        </g>
        <g transform="matrix(0.256236,-0.256236,0.256236,0.256236,238.606,243.56)">
            <g transform="matrix(12,0,0,12,386.613,188.146)">
                <path d="M0.49,-0.496C0.477,-0.52 0.461,-0.539 0.441,-0.552C0.42,-0.565 0.394,-0.572 0.362,-0.572C0.336,-0.572 0.313,-0.567 0.292,-0.556C0.271,-0.545 0.254,-0.529 0.24,-0.509C0.226,-0.49 0.215,-0.467 0.208,-0.44C0.201,-0.412 0.197,-0.383 0.197,-0.35C0.197,-0.319 0.201,-0.29 0.208,-0.263C0.215,-0.235 0.226,-0.212 0.241,-0.192C0.255,-0.172 0.272,-0.156 0.293,-0.145C0.314,-0.134 0.337,-0.128 0.363,-0.128C0.395,-0.128 0.421,-0.135 0.442,-0.149C0.462,-0.163 0.481,-0.186 0.5,-0.217L0.618,-0.147C0.594,-0.097 0.561,-0.058 0.519,-0.031C0.476,-0.003 0.423,0.011 0.359,0.011C0.313,0.011 0.271,0.002 0.234,-0.015C0.197,-0.032 0.165,-0.056 0.138,-0.087C0.111,-0.118 0.09,-0.156 0.075,-0.201C0.06,-0.245 0.053,-0.295 0.053,-0.35C0.053,-0.403 0.061,-0.452 0.076,-0.497C0.091,-0.541 0.113,-0.579 0.14,-0.611C0.167,-0.642 0.2,-0.667 0.238,-0.685C0.276,-0.702 0.318,-0.711 0.364,-0.711C0.397,-0.711 0.426,-0.707 0.453,-0.7C0.48,-0.692 0.503,-0.681 0.525,-0.668C0.546,-0.654 0.564,-0.637 0.58,-0.619C0.595,-0.6 0.609,-0.579 0.62,-0.556L0.49,-0.496Z" style="fill:rgb(125,97,186);fill-rule:nonzero;"/>
            </g>
            <g transform="matrix(12,0,0,12,394.653,188.146)">
                <path d="M0.532,0L0.275,-0.382C0.266,-0.395 0.257,-0.409 0.248,-0.425C0.238,-0.44 0.231,-0.452 0.226,-0.461C0.226,-0.454 0.226,-0.445 0.227,-0.432C0.227,-0.419 0.227,-0.405 0.227,-0.39C0.227,-0.375 0.227,-0.36 0.228,-0.345C0.228,-0.33 0.228,-0.318 0.228,-0.308L0.228,0L0.09,0L0.09,-0.7L0.224,-0.7L0.472,-0.33C0.481,-0.317 0.49,-0.303 0.5,-0.288C0.509,-0.273 0.516,-0.26 0.521,-0.251C0.521,-0.258 0.521,-0.268 0.521,-0.281C0.52,-0.294 0.52,-0.308 0.52,-0.323C0.52,-0.338 0.52,-0.352 0.52,-0.367C0.519,-0.382 0.519,-0.394 0.519,-0.404L0.519,-0.7L0.657,-0.7L0.657,0L0.532,0Z" style="fill:rgb(125,97,186);fill-rule:nonzero;"/>
            </g>
        </g>
        <g transform="matrix(0.256236,-0.256236,0.256236,0.256236,247.936,243.757)">
            <g transform="matrix(12,0,0,12,386.613,188.146)">
                <path d="M0.496,0L0.371,-0.252L0.23,-0.252L0.23,0L0.09,0L0.09,-0.7L0.416,-0.7C0.449,-0.7 0.48,-0.696 0.509,-0.687C0.538,-0.678 0.564,-0.664 0.586,-0.645C0.608,-0.626 0.625,-0.603 0.638,-0.576C0.651,-0.548 0.657,-0.515 0.657,-0.478C0.657,-0.425 0.646,-0.382 0.624,-0.348C0.601,-0.315 0.568,-0.289 0.523,-0.272L0.657,0L0.496,0ZM0.513,-0.475C0.513,-0.507 0.504,-0.53 0.487,-0.544C0.469,-0.557 0.444,-0.564 0.413,-0.564L0.23,-0.564L0.23,-0.384L0.413,-0.384C0.48,-0.384 0.513,-0.414 0.513,-0.475Z" style="fill:rgb(125,97,186);fill-rule:nonzero;"/>
            </g>
            <g transform="matrix(12,0,0,12,395.181,188.146)">
                <path d="M0.657,-0.35C0.657,-0.289 0.647,-0.236 0.626,-0.192C0.606,-0.147 0.579,-0.111 0.546,-0.083C0.512,-0.054 0.473,-0.033 0.431,-0.02C0.388,-0.007 0.344,0 0.299,0L0.09,0L0.09,-0.7L0.309,-0.7C0.359,-0.7 0.405,-0.694 0.448,-0.682C0.49,-0.669 0.527,-0.649 0.558,-0.621C0.589,-0.593 0.613,-0.557 0.63,-0.513C0.648,-0.468 0.657,-0.414 0.657,-0.35ZM0.513,-0.35C0.513,-0.421 0.497,-0.475 0.464,-0.51C0.431,-0.546 0.378,-0.564 0.304,-0.564L0.23,-0.564L0.23,-0.136L0.299,-0.136C0.336,-0.136 0.368,-0.141 0.395,-0.152C0.422,-0.162 0.444,-0.176 0.461,-0.195C0.478,-0.214 0.491,-0.236 0.5,-0.263C0.509,-0.289 0.513,-0.318 0.513,-0.35Z" style="fill:rgb(125,97,186);fill-rule:nonzero;"/>
            </g>
        </g>
        <g transform="matrix(0.256236,-0.256236,0.256236,0.256236,256.982,244.083)">
            <g transform="matrix(12,0,0,12,386.613,188.146)">
                <path d="M0.685,0L0.548,0L0.462,-0.36C0.457,-0.381 0.452,-0.403 0.448,-0.426C0.443,-0.449 0.44,-0.467 0.438,-0.48C0.437,-0.467 0.434,-0.449 0.43,-0.426C0.425,-0.403 0.42,-0.381 0.415,-0.36L0.327,0L0.196,0L0.05,-0.7L0.196,-0.7L0.257,-0.359C0.26,-0.342 0.264,-0.322 0.267,-0.3C0.27,-0.277 0.273,-0.259 0.274,-0.244C0.277,-0.259 0.28,-0.277 0.285,-0.3C0.29,-0.322 0.294,-0.342 0.298,-0.359L0.38,-0.7L0.502,-0.7L0.585,-0.359C0.589,-0.342 0.593,-0.322 0.598,-0.3C0.603,-0.277 0.606,-0.259 0.609,-0.244C0.61,-0.259 0.613,-0.277 0.616,-0.3C0.619,-0.323 0.623,-0.342 0.626,-0.359L0.687,-0.7L0.831,-0.7L0.685,0Z" style="fill:rgb(125,97,186);fill-rule:nonzero;"/>
            </g>
            <g transform="matrix(12,0,0,12,397.185,188.146)">
                <path d="M0.496,0L0.371,-0.252L0.23,-0.252L0.23,0L0.09,0L0.09,-0.7L0.416,-0.7C0.449,-0.7 0.48,-0.696 0.509,-0.687C0.538,-0.678 0.564,-0.664 0.586,-0.645C0.608,-0.626 0.625,-0.603 0.638,-0.576C0.651,-0.548 0.657,-0.515 0.657,-0.478C0.657,-0.425 0.646,-0.382 0.624,-0.348C0.601,-0.315 0.568,-0.289 0.523,-0.272L0.657,0L0.496,0ZM0.513,-0.475C0.513,-0.507 0.504,-0.53 0.487,-0.544C0.469,-0.557 0.444,-0.564 0.413,-0.564L0.23,-0.564L0.23,-0.384L0.413,-0.384C0.48,-0.384 0.513,-0.414 0.513,-0.475Z" style="fill:rgb(125,97,186);fill-rule:nonzero;"/>
            </g>
        </g>
        <g transform="matrix(0.582713,0,0,0.582713,149.906,79.0503)">
            <g transform="matrix(12,0,0,12,392.385,165.817)">
                <path d="M0.517,0L0.517,-0.294L0.23,-0.294L0.23,0L0.09,0L0.09,-0.7L0.23,-0.7L0.23,-0.432L0.517,-0.432L0.517,-0.7L0.657,-0.7L0.657,0L0.517,0Z" style="fill:rgb(125,97,186);fill-rule:nonzero;"/>
            </g>
            <g transform="matrix(12,0,0,12,401.349,165.817)">
                <path d="M0.515,-0.262C0.515,-0.222 0.509,-0.185 0.497,-0.152C0.485,-0.118 0.469,-0.089 0.448,-0.065C0.427,-0.041 0.401,-0.022 0.372,-0.009C0.343,0.004 0.311,0.011 0.277,0.011C0.243,0.011 0.212,0.004 0.183,-0.009C0.154,-0.022 0.129,-0.041 0.108,-0.065C0.086,-0.089 0.07,-0.118 0.058,-0.152C0.046,-0.185 0.04,-0.222 0.04,-0.262C0.04,-0.302 0.046,-0.339 0.058,-0.373C0.07,-0.406 0.086,-0.435 0.108,-0.46C0.129,-0.484 0.154,-0.503 0.183,-0.516C0.212,-0.529 0.243,-0.536 0.277,-0.536C0.311,-0.536 0.343,-0.529 0.372,-0.516C0.401,-0.503 0.427,-0.484 0.448,-0.46C0.469,-0.435 0.485,-0.406 0.497,-0.373C0.509,-0.339 0.515,-0.302 0.515,-0.262ZM0.375,-0.262C0.375,-0.302 0.367,-0.336 0.351,-0.363C0.335,-0.39 0.31,-0.404 0.277,-0.404C0.244,-0.404 0.219,-0.391 0.203,-0.364C0.188,-0.337 0.18,-0.303 0.18,-0.262C0.18,-0.221 0.188,-0.187 0.203,-0.161C0.219,-0.134 0.244,-0.121 0.277,-0.121C0.294,-0.121 0.308,-0.125 0.321,-0.133C0.333,-0.14 0.343,-0.151 0.351,-0.164C0.359,-0.177 0.365,-0.192 0.369,-0.209C0.373,-0.226 0.375,-0.244 0.375,-0.262Z" style="fill:rgb(125,97,186);fill-rule:nonzero;"/>
            </g>
            <g transform="matrix(12,0,0,12,407.889,165.817)">
                <path d="M0.482,-0.153C0.482,-0.123 0.476,-0.098 0.465,-0.077C0.454,-0.056 0.438,-0.039 0.419,-0.025C0.4,-0.013 0.377,-0.003 0.351,0.002C0.325,0.008 0.297,0.011 0.268,0.011C0.226,0.011 0.186,0.005 0.148,-0.006C0.109,-0.017 0.076,-0.031 0.048,-0.05L0.094,-0.155C0.122,-0.14 0.151,-0.128 0.181,-0.119C0.21,-0.111 0.242,-0.107 0.276,-0.107C0.303,-0.107 0.322,-0.11 0.332,-0.117C0.341,-0.124 0.346,-0.134 0.346,-0.147C0.346,-0.159 0.341,-0.169 0.33,-0.176C0.319,-0.183 0.298,-0.191 0.269,-0.2C0.238,-0.209 0.209,-0.219 0.184,-0.229C0.158,-0.238 0.136,-0.25 0.118,-0.263C0.1,-0.276 0.086,-0.291 0.077,-0.31C0.067,-0.329 0.062,-0.352 0.062,-0.38C0.062,-0.407 0.067,-0.431 0.078,-0.451C0.088,-0.47 0.102,-0.486 0.121,-0.499C0.14,-0.512 0.162,-0.521 0.188,-0.527C0.213,-0.533 0.241,-0.536 0.272,-0.536C0.305,-0.536 0.339,-0.531 0.373,-0.522C0.407,-0.513 0.438,-0.5 0.466,-0.485L0.422,-0.376C0.396,-0.39 0.37,-0.401 0.343,-0.407C0.316,-0.414 0.291,-0.418 0.269,-0.418C0.241,-0.418 0.222,-0.415 0.213,-0.409C0.203,-0.404 0.198,-0.395 0.198,-0.384C0.198,-0.379 0.199,-0.374 0.202,-0.37C0.205,-0.365 0.21,-0.361 0.218,-0.357C0.225,-0.352 0.236,-0.347 0.251,-0.342C0.265,-0.337 0.284,-0.33 0.307,-0.323C0.33,-0.315 0.353,-0.307 0.374,-0.298C0.395,-0.289 0.414,-0.279 0.43,-0.266C0.446,-0.253 0.459,-0.238 0.468,-0.22C0.477,-0.201 0.482,-0.179 0.482,-0.153Z" style="fill:rgb(125,97,186);fill-rule:nonzero;"/>
            </g>
            <g transform="matrix(12,0,0,12,414.213,165.817)">
                <path d="M0.36,-0.021C0.349,-0.012 0.333,-0.004 0.314,0.002C0.295,0.008 0.274,0.011 0.253,0.011C0.232,0.011 0.212,0.007 0.195,-0.001C0.178,-0.008 0.163,-0.019 0.151,-0.033C0.139,-0.047 0.13,-0.064 0.123,-0.083C0.116,-0.102 0.113,-0.124 0.113,-0.147L0.113,-0.395L0.025,-0.395L0.025,-0.525L0.113,-0.525L0.113,-0.66L0.251,-0.729L0.251,-0.525L0.377,-0.525L0.377,-0.395L0.251,-0.395L0.251,-0.184C0.251,-0.159 0.255,-0.142 0.264,-0.134C0.273,-0.125 0.285,-0.121 0.302,-0.121C0.315,-0.121 0.327,-0.124 0.338,-0.13C0.348,-0.136 0.363,-0.146 0.38,-0.161L0.36,-0.021Z" style="fill:rgb(125,97,186);fill-rule:nonzero;"/>
            </g>
            <g transform="matrix(12,0,0,12,419.265,165.817)">
                <path d="M0.495,-0.262C0.495,-0.252 0.495,-0.244 0.495,-0.236C0.494,-0.23 0.494,-0.223 0.493,-0.218L0.178,-0.218C0.179,-0.2 0.183,-0.185 0.19,-0.172C0.197,-0.159 0.205,-0.149 0.215,-0.141C0.225,-0.134 0.236,-0.128 0.249,-0.125C0.261,-0.121 0.273,-0.119 0.286,-0.119C0.305,-0.119 0.323,-0.122 0.338,-0.129C0.353,-0.136 0.366,-0.145 0.376,-0.156L0.474,-0.074C0.453,-0.047 0.425,-0.026 0.391,-0.011C0.356,0.004 0.321,0.011 0.286,0.011C0.248,0.011 0.214,0.004 0.184,-0.009C0.153,-0.021 0.128,-0.04 0.107,-0.064C0.085,-0.087 0.069,-0.116 0.057,-0.15C0.046,-0.183 0.04,-0.221 0.04,-0.262C0.04,-0.302 0.046,-0.339 0.058,-0.373C0.07,-0.406 0.086,-0.435 0.108,-0.46C0.129,-0.484 0.153,-0.503 0.182,-0.516C0.21,-0.529 0.241,-0.536 0.274,-0.536C0.309,-0.536 0.34,-0.529 0.368,-0.515C0.395,-0.5 0.418,-0.481 0.437,-0.456C0.456,-0.431 0.47,-0.401 0.48,-0.368C0.49,-0.335 0.495,-0.299 0.495,-0.262ZM0.361,-0.322C0.36,-0.334 0.357,-0.345 0.353,-0.357C0.349,-0.368 0.343,-0.378 0.335,-0.387C0.328,-0.396 0.318,-0.403 0.307,-0.408C0.295,-0.413 0.282,-0.416 0.266,-0.416C0.241,-0.416 0.221,-0.407 0.206,-0.389C0.191,-0.371 0.183,-0.349 0.18,-0.322L0.361,-0.322Z" style="fill:rgb(125,97,186);fill-rule:nonzero;"/>
            </g>
            <g transform="matrix(12,0,0,12,425.601,165.817)">
                <path d="M0.482,-0.153C0.482,-0.123 0.476,-0.098 0.465,-0.077C0.454,-0.056 0.438,-0.039 0.419,-0.025C0.4,-0.013 0.377,-0.003 0.351,0.002C0.325,0.008 0.297,0.011 0.268,0.011C0.226,0.011 0.186,0.005 0.148,-0.006C0.109,-0.017 0.076,-0.031 0.048,-0.05L0.094,-0.155C0.122,-0.14 0.151,-0.128 0.181,-0.119C0.21,-0.111 0.242,-0.107 0.276,-0.107C0.303,-0.107 0.322,-0.11 0.332,-0.117C0.341,-0.124 0.346,-0.134 0.346,-0.147C0.346,-0.159 0.341,-0.169 0.33,-0.176C0.319,-0.183 0.298,-0.191 0.269,-0.2C0.238,-0.209 0.209,-0.219 0.184,-0.229C0.158,-0.238 0.136,-0.25 0.118,-0.263C0.1,-0.276 0.086,-0.291 0.077,-0.31C0.067,-0.329 0.062,-0.352 0.062,-0.38C0.062,-0.407 0.067,-0.431 0.078,-0.451C0.088,-0.47 0.102,-0.486 0.121,-0.499C0.14,-0.512 0.162,-0.521 0.188,-0.527C0.213,-0.533 0.241,-0.536 0.272,-0.536C0.305,-0.536 0.339,-0.531 0.373,-0.522C0.407,-0.513 0.438,-0.5 0.466,-0.485L0.422,-0.376C0.396,-0.39 0.37,-0.401 0.343,-0.407C0.316,-0.414 0.291,-0.418 0.269,-0.418C0.241,-0.418 0.222,-0.415 0.213,-0.409C0.203,-0.404 0.198,-0.395 0.198,-0.384C0.198,-0.379 0.199,-0.374 0.202,-0.37C0.205,-0.365 0.21,-0.361 0.218,-0.357C0.225,-0.352 0.236,-0.347 0.251,-0.342C0.265,-0.337 0.284,-0.33 0.307,-0.323C0.33,-0.315 0.353,-0.307 0.374,-0.298C0.395,-0.289 0.414,-0.279 0.43,-0.266C0.446,-0.253 0.459,-0.238 0.468,-0.22C0.477,-0.201 0.482,-0.179 0.482,-0.153Z" style="fill:rgb(125,97,186);fill-rule:nonzero;"/>
            </g>
            <g transform="matrix(12,0,0,12,431.901,165.817)">
                <path d="M0.482,-0.153C0.482,-0.123 0.476,-0.098 0.465,-0.077C0.454,-0.056 0.438,-0.039 0.419,-0.025C0.4,-0.013 0.377,-0.003 0.351,0.002C0.325,0.008 0.297,0.011 0.268,0.011C0.226,0.011 0.186,0.005 0.148,-0.006C0.109,-0.017 0.076,-0.031 0.048,-0.05L0.094,-0.155C0.122,-0.14 0.151,-0.128 0.181,-0.119C0.21,-0.111 0.242,-0.107 0.276,-0.107C0.303,-0.107 0.322,-0.11 0.332,-0.117C0.341,-0.124 0.346,-0.134 0.346,-0.147C0.346,-0.159 0.341,-0.169 0.33,-0.176C0.319,-0.183 0.298,-0.191 0.269,-0.2C0.238,-0.209 0.209,-0.219 0.184,-0.229C0.158,-0.238 0.136,-0.25 0.118,-0.263C0.1,-0.276 0.086,-0.291 0.077,-0.31C0.067,-0.329 0.062,-0.352 0.062,-0.38C0.062,-0.407 0.067,-0.431 0.078,-0.451C0.088,-0.47 0.102,-0.486 0.121,-0.499C0.14,-0.512 0.162,-0.521 0.188,-0.527C0.213,-0.533 0.241,-0.536 0.272,-0.536C0.305,-0.536 0.339,-0.531 0.373,-0.522C0.407,-0.513 0.438,-0.5 0.466,-0.485L0.422,-0.376C0.396,-0.39 0.37,-0.401 0.343,-0.407C0.316,-0.414 0.291,-0.418 0.269,-0.418C0.241,-0.418 0.222,-0.415 0.213,-0.409C0.203,-0.404 0.198,-0.395 0.198,-0.384C0.198,-0.379 0.199,-0.374 0.202,-0.37C0.205,-0.365 0.21,-0.361 0.218,-0.357C0.225,-0.352 0.236,-0.347 0.251,-0.342C0.265,-0.337 0.284,-0.33 0.307,-0.323C0.33,-0.315 0.353,-0.307 0.374,-0.298C0.395,-0.289 0.414,-0.279 0.43,-0.266C0.446,-0.253 0.459,-0.238 0.468,-0.22C0.477,-0.201 0.482,-0.179 0.482,-0.153Z" style="fill:rgb(125,97,186);fill-rule:nonzero;"/>
            </g>
            <g transform="matrix(12,0,0,12,392.385,178.645)">
                <path d="M0.23,-0.563L0.23,-0.431L0.441,-0.431L0.441,-0.295L0.23,-0.295L0.23,0L0.09,0L0.09,-0.7L0.591,-0.7L0.591,-0.563L0.23,-0.563Z" style="fill:rgb(125,97,186);fill-rule:nonzero;"/>
            </g>
            <g transform="matrix(12,0,0,12,398.805,178.645)">
                <path d="M0.495,-0.262C0.495,-0.252 0.495,-0.244 0.495,-0.236C0.494,-0.23 0.494,-0.223 0.493,-0.218L0.178,-0.218C0.179,-0.2 0.183,-0.185 0.19,-0.172C0.197,-0.159 0.205,-0.149 0.215,-0.141C0.225,-0.134 0.236,-0.128 0.249,-0.125C0.261,-0.121 0.273,-0.119 0.286,-0.119C0.305,-0.119 0.323,-0.122 0.338,-0.129C0.353,-0.136 0.366,-0.145 0.376,-0.156L0.474,-0.074C0.453,-0.047 0.425,-0.026 0.391,-0.011C0.356,0.004 0.321,0.011 0.286,0.011C0.248,0.011 0.214,0.004 0.184,-0.009C0.153,-0.021 0.128,-0.04 0.107,-0.064C0.085,-0.087 0.069,-0.116 0.057,-0.15C0.046,-0.183 0.04,-0.221 0.04,-0.262C0.04,-0.302 0.046,-0.339 0.058,-0.373C0.07,-0.406 0.086,-0.435 0.108,-0.46C0.129,-0.484 0.153,-0.503 0.182,-0.516C0.21,-0.529 0.241,-0.536 0.274,-0.536C0.309,-0.536 0.34,-0.529 0.368,-0.515C0.395,-0.5 0.418,-0.481 0.437,-0.456C0.456,-0.431 0.47,-0.401 0.48,-0.368C0.49,-0.335 0.495,-0.299 0.495,-0.262ZM0.361,-0.322C0.36,-0.334 0.357,-0.345 0.353,-0.357C0.349,-0.368 0.343,-0.378 0.335,-0.387C0.328,-0.396 0.318,-0.403 0.307,-0.408C0.295,-0.413 0.282,-0.416 0.266,-0.416C0.241,-0.416 0.221,-0.407 0.206,-0.389C0.191,-0.371 0.183,-0.349 0.18,-0.322L0.361,-0.322Z" style="fill:rgb(125,97,186);fill-rule:nonzero;"/>
            </g>
            <g transform="matrix(12,0,0,12,405.177,178.645)">
                <path d="M0.356,0L0.356,-0.035C0.343,-0.022 0.327,-0.011 0.306,-0.002C0.285,0.007 0.263,0.011 0.238,0.011C0.213,0.011 0.189,0.007 0.166,-0.001C0.143,-0.008 0.122,-0.02 0.103,-0.035C0.085,-0.05 0.07,-0.07 0.059,-0.093C0.048,-0.116 0.042,-0.144 0.042,-0.176C0.042,-0.205 0.048,-0.23 0.059,-0.252C0.07,-0.274 0.085,-0.292 0.104,-0.307C0.123,-0.321 0.146,-0.332 0.172,-0.339C0.197,-0.346 0.225,-0.35 0.255,-0.35C0.279,-0.35 0.299,-0.348 0.315,-0.344C0.331,-0.339 0.345,-0.334 0.356,-0.329L0.356,-0.355C0.356,-0.374 0.35,-0.39 0.338,-0.403C0.325,-0.416 0.306,-0.422 0.281,-0.422C0.265,-0.422 0.251,-0.421 0.238,-0.42C0.226,-0.419 0.215,-0.417 0.203,-0.414C0.193,-0.411 0.182,-0.408 0.171,-0.404C0.16,-0.399 0.149,-0.394 0.137,-0.387L0.084,-0.483C0.099,-0.492 0.114,-0.499 0.129,-0.506C0.143,-0.513 0.158,-0.518 0.173,-0.523C0.189,-0.527 0.206,-0.53 0.223,-0.533C0.24,-0.535 0.26,-0.536 0.281,-0.536C0.313,-0.536 0.342,-0.532 0.368,-0.524C0.394,-0.516 0.416,-0.504 0.435,-0.489C0.454,-0.473 0.468,-0.454 0.478,-0.431C0.489,-0.407 0.494,-0.381 0.494,-0.352L0.494,0L0.356,0ZM0.356,-0.22C0.344,-0.227 0.331,-0.233 0.318,-0.236C0.304,-0.24 0.285,-0.242 0.26,-0.242C0.234,-0.242 0.214,-0.236 0.201,-0.225C0.187,-0.214 0.18,-0.197 0.18,-0.176C0.18,-0.157 0.186,-0.141 0.198,-0.127C0.21,-0.113 0.231,-0.106 0.26,-0.106C0.283,-0.106 0.303,-0.111 0.32,-0.121C0.337,-0.13 0.349,-0.141 0.356,-0.154L0.356,-0.22Z" style="fill:rgb(125,97,186);fill-rule:nonzero;"/>
            </g>
            <g transform="matrix(12,0,0,12,411.849,178.645)">
                <path d="M0.36,-0.021C0.349,-0.012 0.333,-0.004 0.314,0.002C0.295,0.008 0.274,0.011 0.253,0.011C0.232,0.011 0.212,0.007 0.195,-0.001C0.178,-0.008 0.163,-0.019 0.151,-0.033C0.139,-0.047 0.13,-0.064 0.123,-0.083C0.116,-0.102 0.113,-0.124 0.113,-0.147L0.113,-0.395L0.025,-0.395L0.025,-0.525L0.113,-0.525L0.113,-0.66L0.251,-0.729L0.251,-0.525L0.377,-0.525L0.377,-0.395L0.251,-0.395L0.251,-0.184C0.251,-0.159 0.255,-0.142 0.264,-0.134C0.273,-0.125 0.285,-0.121 0.302,-0.121C0.315,-0.121 0.327,-0.124 0.338,-0.13C0.348,-0.136 0.363,-0.146 0.38,-0.161L0.36,-0.021Z" style="fill:rgb(125,97,186);fill-rule:nonzero;"/>
            </g>
            <g transform="matrix(12,0,0,12,417.153,178.645)">
                <path d="M0.384,0L0.384,-0.284C0.384,-0.331 0.376,-0.363 0.361,-0.38C0.346,-0.397 0.324,-0.406 0.295,-0.406C0.266,-0.406 0.244,-0.398 0.229,-0.381C0.213,-0.364 0.205,-0.332 0.205,-0.287L0.205,0L0.067,0L0.067,-0.66L0.205,-0.729L0.205,-0.49C0.217,-0.503 0.234,-0.514 0.255,-0.523C0.276,-0.532 0.3,-0.536 0.328,-0.536C0.395,-0.536 0.444,-0.515 0.475,-0.471C0.506,-0.429 0.522,-0.37 0.522,-0.296L0.522,0L0.384,0Z" style="fill:rgb(125,97,186);fill-rule:nonzero;"/>
            </g>
            <g transform="matrix(12,0,0,12,424.161,178.645)">
                <path d="M0.495,-0.262C0.495,-0.252 0.495,-0.244 0.495,-0.236C0.494,-0.23 0.494,-0.223 0.493,-0.218L0.178,-0.218C0.179,-0.2 0.183,-0.185 0.19,-0.172C0.197,-0.159 0.205,-0.149 0.215,-0.141C0.225,-0.134 0.236,-0.128 0.249,-0.125C0.261,-0.121 0.273,-0.119 0.286,-0.119C0.305,-0.119 0.323,-0.122 0.338,-0.129C0.353,-0.136 0.366,-0.145 0.376,-0.156L0.474,-0.074C0.453,-0.047 0.425,-0.026 0.391,-0.011C0.356,0.004 0.321,0.011 0.286,0.011C0.248,0.011 0.214,0.004 0.184,-0.009C0.153,-0.021 0.128,-0.04 0.107,-0.064C0.085,-0.087 0.069,-0.116 0.057,-0.15C0.046,-0.183 0.04,-0.221 0.04,-0.262C0.04,-0.302 0.046,-0.339 0.058,-0.373C0.07,-0.406 0.086,-0.435 0.108,-0.46C0.129,-0.484 0.153,-0.503 0.182,-0.516C0.21,-0.529 0.241,-0.536 0.274,-0.536C0.309,-0.536 0.34,-0.529 0.368,-0.515C0.395,-0.5 0.418,-0.481 0.437,-0.456C0.456,-0.431 0.47,-0.401 0.48,-0.368C0.49,-0.335 0.495,-0.299 0.495,-0.262ZM0.361,-0.322C0.36,-0.334 0.357,-0.345 0.353,-0.357C0.349,-0.368 0.343,-0.378 0.335,-0.387C0.328,-0.396 0.318,-0.403 0.307,-0.408C0.295,-0.413 0.282,-0.416 0.266,-0.416C0.241,-0.416 0.221,-0.407 0.206,-0.389C0.191,-0.371 0.183,-0.349 0.18,-0.322L0.361,-0.322Z" style="fill:rgb(125,97,186);fill-rule:nonzero;"/>
            </g>
            <g transform="matrix(12,0,0,12,430.617,178.645)">
                <path d="M0.374,-0.364C0.363,-0.374 0.35,-0.382 0.337,-0.389C0.324,-0.395 0.309,-0.398 0.294,-0.398C0.281,-0.398 0.269,-0.396 0.258,-0.393C0.247,-0.39 0.237,-0.384 0.23,-0.375C0.222,-0.366 0.216,-0.355 0.212,-0.34C0.207,-0.325 0.205,-0.307 0.205,-0.284L0.205,0L0.067,0L0.067,-0.525L0.205,-0.525L0.205,-0.49C0.217,-0.503 0.232,-0.514 0.25,-0.523C0.267,-0.532 0.288,-0.536 0.313,-0.536C0.336,-0.536 0.355,-0.532 0.372,-0.525C0.388,-0.517 0.401,-0.508 0.41,-0.499L0.374,-0.364Z" style="fill:rgb(125,97,186);fill-rule:nonzero;"/>
            </g>
            <g transform="matrix(12,0,0,12,435.873,178.645)">
                <path d="M0.566,0L0.451,0L0.399,-0.206C0.396,-0.216 0.394,-0.227 0.391,-0.239C0.388,-0.251 0.386,-0.263 0.383,-0.274C0.38,-0.285 0.378,-0.296 0.376,-0.306C0.373,-0.316 0.372,-0.324 0.371,-0.33C0.37,-0.324 0.368,-0.316 0.366,-0.306C0.364,-0.296 0.362,-0.285 0.359,-0.274C0.356,-0.263 0.354,-0.251 0.351,-0.239C0.348,-0.227 0.346,-0.216 0.343,-0.206L0.291,0L0.176,0L0.025,-0.525L0.165,-0.525L0.211,-0.331C0.213,-0.321 0.215,-0.31 0.218,-0.299C0.221,-0.288 0.223,-0.277 0.226,-0.266C0.228,-0.255 0.23,-0.244 0.232,-0.234C0.233,-0.225 0.235,-0.217 0.236,-0.211C0.238,-0.224 0.242,-0.243 0.248,-0.266C0.253,-0.289 0.259,-0.31 0.264,-0.331L0.316,-0.525L0.43,-0.525L0.482,-0.331C0.487,-0.31 0.493,-0.289 0.499,-0.266C0.504,-0.243 0.508,-0.224 0.51,-0.211C0.511,-0.217 0.512,-0.225 0.514,-0.234C0.516,-0.244 0.518,-0.255 0.521,-0.266C0.523,-0.277 0.525,-0.288 0.528,-0.299C0.531,-0.31 0.533,-0.321 0.535,-0.331L0.581,-0.525L0.717,-0.525L0.566,0Z" style="fill:rgb(125,97,186);fill-rule:nonzero;"/>
            </g>
            <g transform="matrix(12,0,0,12,444.777,178.645)">
                <path d="M0.22,-0.647C0.22,-0.626 0.212,-0.607 0.197,-0.592C0.181,-0.576 0.162,-0.568 0.141,-0.568C0.12,-0.568 0.101,-0.576 0.086,-0.592C0.07,-0.607 0.062,-0.626 0.062,-0.647C0.062,-0.668 0.07,-0.687 0.086,-0.703C0.101,-0.718 0.12,-0.726 0.141,-0.726C0.162,-0.726 0.181,-0.718 0.197,-0.703C0.212,-0.687 0.22,-0.668 0.22,-0.647ZM0.072,0L0.072,-0.525L0.21,-0.525L0.21,0L0.072,0Z" style="fill:rgb(125,97,186);fill-rule:nonzero;"/>
            </g>
            <g transform="matrix(12,0,0,12,448.161,178.645)">
                <path d="M0.384,0L0.384,-0.284C0.384,-0.331 0.376,-0.363 0.361,-0.38C0.346,-0.397 0.324,-0.406 0.295,-0.406C0.266,-0.406 0.244,-0.398 0.229,-0.381C0.213,-0.364 0.205,-0.332 0.205,-0.287L0.205,0L0.067,0L0.067,-0.525L0.205,-0.525L0.205,-0.49C0.217,-0.503 0.234,-0.514 0.255,-0.523C0.276,-0.532 0.3,-0.536 0.328,-0.536C0.395,-0.536 0.444,-0.515 0.475,-0.471C0.506,-0.429 0.522,-0.37 0.522,-0.296L0.522,0L0.384,0Z" style="fill:rgb(125,97,186);fill-rule:nonzero;"/>
            </g>
            <g transform="matrix(12,0,0,12,455.169,178.645)">
                <path d="M0.493,-0.089C0.493,-0.046 0.49,-0.008 0.484,0.025C0.477,0.058 0.466,0.086 0.449,0.109C0.432,0.132 0.409,0.151 0.38,0.165C0.351,0.179 0.313,0.188 0.267,0.193L0.218,0.089C0.245,0.085 0.267,0.08 0.284,0.075C0.302,0.07 0.316,0.062 0.327,0.053C0.338,0.044 0.345,0.032 0.349,0.018C0.353,0.004 0.355,-0.013 0.355,-0.033C0.342,-0.022 0.326,-0.012 0.309,-0.003C0.291,0.006 0.269,0.011 0.244,0.011C0.216,0.011 0.19,0.006 0.165,-0.005C0.14,-0.016 0.119,-0.033 0.1,-0.056C0.081,-0.079 0.067,-0.108 0.056,-0.142C0.045,-0.178 0.04,-0.22 0.04,-0.269C0.04,-0.308 0.045,-0.344 0.054,-0.377C0.063,-0.41 0.076,-0.438 0.093,-0.462C0.11,-0.485 0.132,-0.503 0.157,-0.517C0.182,-0.53 0.211,-0.536 0.244,-0.536C0.267,-0.536 0.289,-0.532 0.308,-0.524C0.327,-0.516 0.342,-0.506 0.355,-0.495L0.355,-0.525L0.493,-0.525L0.493,-0.089ZM0.355,-0.361C0.333,-0.391 0.302,-0.406 0.262,-0.406C0.207,-0.406 0.18,-0.361 0.18,-0.272C0.18,-0.218 0.188,-0.179 0.204,-0.155C0.221,-0.131 0.243,-0.119 0.27,-0.119C0.291,-0.119 0.308,-0.123 0.321,-0.131C0.334,-0.139 0.345,-0.15 0.355,-0.163L0.355,-0.361Z" style="fill:rgb(125,97,186);fill-rule:nonzero;"/>
            </g>
        </g>
        <path d="M313.162,202.011C314.923,202.011 316.352,203.44 316.352,205.2C316.352,206.96 314.923,208.389 313.162,208.389C311.402,208.389 309.973,206.96 309.973,205.2C309.973,203.44 311.402,202.011 313.162,202.011ZM313.645,202.964L313.864,203.008L314.28,203.18L314.653,203.429L314.97,203.747L315.219,204.12L315.391,204.535L315.479,204.975L315.479,205.424L315.391,205.864L315.219,206.28L314.97,206.653L314.653,206.97L314.28,207.219L313.864,207.391L313.424,207.479L312.975,207.479L312.535,207.391L312.12,207.219L311.747,206.97L311.429,206.653L311.18,206.28L311.008,205.864L310.92,205.424L310.92,204.975L311.008,204.535L311.18,204.12L311.429,203.747L311.747,203.429L312.12,203.18L312.535,203.008L312.975,202.92L313.424,202.92L313.645,202.964Z" style="fill:rgb(125,97,186);"/>
        <path d="M327.6,202.011C329.36,202.011 330.789,203.44 330.789,205.2C330.789,206.96 329.36,208.389 327.6,208.389C325.84,208.389 324.411,206.96 324.411,205.2C324.411,203.44 325.84,202.011 327.6,202.011ZM328.045,202.964L328.264,203.008L328.68,203.18L329.053,203.429L329.37,203.747L329.619,204.12L329.791,204.535L329.879,204.975L329.879,205.424L329.791,205.864L329.619,206.28L329.37,206.653L329.053,206.97L328.68,207.219L328.264,207.391L327.824,207.479L327.375,207.479L326.935,207.391L326.52,207.219L326.147,206.97L325.829,206.653L325.58,206.28L325.408,205.864L325.32,205.424L325.32,204.975L325.408,204.535L325.58,204.12L325.829,203.747L326.147,203.429L326.52,203.18L326.935,203.008L327.375,202.92L327.824,202.92L328.045,202.964Z" style="fill:rgb(125,97,186);"/>
        <path d="M385.2,202.011C386.96,202.011 388.389,203.44 388.389,205.2C388.389,206.96 386.96,208.389 385.2,208.389C383.44,208.389 382.011,206.96 382.011,205.2C382.011,203.44 383.44,202.011 385.2,202.011ZM385.645,202.964L385.864,203.008L386.28,203.18L386.653,203.429L386.97,203.747L387.219,204.12L387.391,204.535L387.479,204.975L387.479,205.424L387.391,205.864L387.219,206.28L386.97,206.653L386.653,206.97L386.28,207.219L385.864,207.391L385.424,207.479L384.975,207.479L384.535,207.391L384.12,207.219L383.747,206.97L383.429,206.653L383.18,206.28L383.008,205.864L382.92,205.424L382.92,204.975L383.008,204.535L383.18,204.12L383.429,203.747L383.747,203.429L384.12,203.18L384.535,203.008L384.975,202.92L385.424,202.92L385.645,202.964Z" style="fill:rgb(125,97,186);"/>
        <path d="M392.4,202.011C394.16,202.011 395.589,203.44 395.589,205.2C395.589,206.96 394.16,208.389 392.4,208.389C390.64,208.389 389.211,206.96 389.211,205.2C389.211,203.44 390.64,202.011 392.4,202.011ZM392.845,202.964L393.064,203.008L393.48,203.18L393.853,203.429L394.17,203.747L394.419,204.12L394.591,204.535L394.679,204.975L394.679,205.424L394.591,205.864L394.419,206.28L394.17,206.653L393.853,206.97L393.48,207.219L393.064,207.391L392.624,207.479L392.175,207.479L391.735,207.391L391.32,207.219L390.947,206.97L390.629,206.653L390.38,206.28L390.208,205.864L390.12,205.424L390.12,204.975L390.208,204.535L390.38,204.12L390.629,203.747L390.947,203.429L391.32,203.18L391.735,203.008L392.175,202.92L392.624,202.92L392.845,202.964Z" style="fill:rgb(125,97,186);"/>
        <g transform="matrix(1,0,0,1,-14.3976,0)">
            <path d="M392.4,202.011C394.16,202.011 395.589,203.44 395.589,205.2C395.589,206.96 394.16,208.389 392.4,208.389C390.64,208.389 389.211,206.96 389.211,205.2C389.211,203.44 390.64,202.011 392.4,202.011ZM392.845,202.964L393.064,203.008L393.48,203.18L393.853,203.429L394.17,203.747L394.419,204.12L394.591,204.535L394.679,204.975L394.679,205.424L394.591,205.864L394.419,206.28L394.17,206.653L393.853,206.97L393.48,207.219L393.064,207.391L392.624,207.479L392.175,207.479L391.735,207.391L391.32,207.219L390.947,206.97L390.629,206.653L390.38,206.28L390.208,205.864L390.12,205.424L390.12,204.975L390.208,204.535L390.38,204.12L390.629,203.747L390.947,203.429L391.32,203.18L391.735,203.008L392.175,202.92L392.624,202.92L392.845,202.964Z" style="fill:rgb(125,97,186);"/>
        </g>
        <path d="M349.2,144.411C350.96,144.411 352.389,145.84 352.389,147.6C352.389,149.36 350.96,150.789 349.2,150.789C347.44,150.789 346.011,149.36 346.011,147.6C346.011,145.84 347.44,144.411 349.2,144.411ZM349.645,145.364L349.864,145.408L350.28,145.58L350.653,145.829L350.97,146.147L351.219,146.52L351.391,146.935L351.479,147.375L351.479,147.824L351.391,148.264L351.219,148.68L350.97,149.053L350.653,149.37L350.28,149.619L349.864,149.792L349.424,149.879L348.975,149.879L348.535,149.792L348.12,149.619L347.747,149.37L347.429,149.053L347.18,148.68L347.008,148.264L346.92,147.824L346.92,147.375L347.008,146.935L347.18,146.52L347.429,146.147L347.747,145.829L348.12,145.58L348.535,145.408L348.975,145.32L349.424,145.32L349.645,145.364Z" style="fill:rgb(125,97,186);"/>
        <g transform="matrix(1,0,0,1,36,0)">
            <path d="M349.2,144.411C350.96,144.411 352.389,145.84 352.389,147.6C352.389,149.36 350.96,150.789 349.2,150.789C347.44,150.789 346.011,149.36 346.011,147.6C346.011,145.84 347.44,144.411 349.2,144.411ZM349.645,145.364L349.864,145.408L350.28,145.58L350.653,145.829L350.97,146.147L351.219,146.52L351.391,146.935L351.479,147.375L351.479,147.824L351.391,148.264L351.219,148.68L350.97,149.053L350.653,149.37L350.28,149.619L349.864,149.792L349.424,149.879L348.975,149.879L348.535,149.792L348.12,149.619L347.747,149.37L347.429,149.053L347.18,148.68L347.008,148.264L346.92,147.824L346.92,147.375L347.008,146.935L347.18,146.52L347.429,146.147L347.747,145.829L348.12,145.58L348.535,145.408L348.975,145.32L349.424,145.32L349.645,145.364Z" style="fill:rgb(125,97,186);"/>
        </g>
        <g transform="matrix(1,0,0,1,28.8024,0)">
            <path d="M349.2,144.411C350.96,144.411 352.389,145.84 352.389,147.6C352.389,149.36 350.96,150.789 349.2,150.789C347.44,150.789 346.011,149.36 346.011,147.6C346.011,145.84 347.44,144.411 349.2,144.411ZM349.645,145.364L349.864,145.408L350.28,145.58L350.653,145.829L350.97,146.147L351.219,146.52L351.391,146.935L351.479,147.375L351.479,147.824L351.391,148.264L351.219,148.68L350.97,149.053L350.653,149.37L350.28,149.619L349.864,149.792L349.424,149.879L348.975,149.879L348.535,149.792L348.12,149.619L347.747,149.37L347.429,149.053L347.18,148.68L347.008,148.264L346.92,147.824L346.92,147.375L347.008,146.935L347.18,146.52L347.429,146.147L347.747,145.829L348.12,145.58L348.535,145.408L348.975,145.32L349.424,145.32L349.645,145.364Z" style="fill:rgb(125,97,186);"/>
        </g>
        <g transform="matrix(1,0,0,1,0,-0.000137138)">
            <rect x="288" y="144" width="144" height="64.8" style="fill:rgb(251,193,104);"/>
        </g>
    </g>
</svg>
